<svg width="41" height="57" viewBox="0 0 41 57" fill="none" xmlns="http://www.w3.org/2000/svg">
<rect x="2.03931" y="19.0393" width="35.3774" height="24.9214" rx="0.746855" fill="white" stroke="#6B1312" stroke-width="0.0786164"/>
<path d="M5.50726 26.5029V24.852H6.86575V26.5029H6.74547V24.9227L6.78085 24.9605H5.59217L5.62755 24.9227V26.5029H5.50726ZM7.41794 26.5029V25.2718H7.53586V25.8331H8.37077V25.2718H8.48869V26.5029H8.37077V25.9369H7.53586V26.5029H7.41794ZM10.2519 26.5029V24.852H10.917C11.0868 24.852 11.2204 24.8874 11.3179 24.9581C11.417 25.0289 11.4665 25.1334 11.4665 25.2718C11.4665 25.4086 11.4185 25.5116 11.3226 25.5808C11.2283 25.6499 11.1049 25.6845 10.9524 25.6845L10.9924 25.6374C11.1764 25.6374 11.3156 25.6735 11.4099 25.7459C11.5042 25.8182 11.5514 25.9243 11.5514 26.0643C11.5514 26.2042 11.5027 26.3127 11.4052 26.3897C11.3077 26.4652 11.1599 26.5029 10.9618 26.5029H10.2519ZM10.3722 26.4015H10.9641C11.1167 26.4015 11.2322 26.374 11.3108 26.319C11.391 26.2624 11.4311 26.1751 11.4311 26.0572C11.4311 25.9377 11.391 25.8512 11.3108 25.7977C11.2322 25.7427 11.1167 25.7152 10.9641 25.7152H10.3722V26.4015ZM10.3722 25.6161H10.9146C11.0514 25.6161 11.1568 25.5886 11.2307 25.5336C11.3061 25.477 11.3439 25.3944 11.3439 25.2859C11.3439 25.1759 11.3061 25.0933 11.2307 25.0383C11.1568 24.9817 11.0514 24.9534 10.9146 24.9534H10.3722V25.6161ZM12.2024 26.5029V25.3426L12.2354 25.3779H11.7212V25.2718H12.8014V25.3779H12.2873L12.3203 25.3426V26.5029H12.2024ZM15.0154 26.5147C14.8927 26.5147 14.7788 26.4943 14.6734 26.4534C14.5696 26.4109 14.4792 26.352 14.4022 26.2765C14.3251 26.201 14.2654 26.113 14.2229 26.0124C14.1805 25.9102 14.1593 25.7985 14.1593 25.6775C14.1593 25.5564 14.1805 25.4455 14.2229 25.3449C14.2654 25.2427 14.3251 25.1539 14.4022 25.0784C14.4808 25.0029 14.572 24.9448 14.6758 24.9039C14.7795 24.8614 14.8927 24.8402 15.0154 24.8402C15.1317 24.8402 15.2402 24.8591 15.3409 24.8968C15.4431 24.9345 15.5303 24.9919 15.6027 25.069L15.5272 25.1468C15.4564 25.0776 15.3778 25.0281 15.2913 24.9982C15.2064 24.9668 15.116 24.951 15.0201 24.951C14.9148 24.951 14.8165 24.9691 14.7253 25.0053C14.6357 25.0415 14.5571 25.0926 14.4894 25.1586C14.4234 25.2246 14.3715 25.3017 14.3338 25.3897C14.2976 25.4778 14.2795 25.5737 14.2795 25.6775C14.2795 25.7812 14.2976 25.8771 14.3338 25.9652C14.3715 26.0532 14.4234 26.1303 14.4894 26.1963C14.5571 26.2624 14.6357 26.3135 14.7253 26.3496C14.8165 26.3858 14.9148 26.4039 15.0201 26.4039C15.116 26.4039 15.2064 26.3889 15.2913 26.3591C15.3778 26.3276 15.4564 26.2765 15.5272 26.2058L15.6027 26.2836C15.5303 26.3606 15.4431 26.4188 15.3409 26.4581C15.2402 26.4959 15.1317 26.5147 15.0154 26.5147ZM16.5693 26.5124C16.4608 26.5124 16.3626 26.4872 16.2745 26.4369C16.188 26.3866 16.1188 26.315 16.067 26.2223C16.0166 26.1279 15.9915 26.0163 15.9915 25.8874C15.9915 25.7584 16.0166 25.6476 16.067 25.5548C16.1188 25.4605 16.188 25.3881 16.2745 25.3378C16.3626 25.2875 16.4608 25.2624 16.5693 25.2624C16.6857 25.2624 16.7894 25.2891 16.8806 25.3426C16.9734 25.3944 17.0457 25.4676 17.0976 25.5619C17.1511 25.6562 17.1778 25.7647 17.1778 25.8874C17.1778 26.01 17.1511 26.1185 17.0976 26.2128C17.0457 26.3072 16.9734 26.3811 16.8806 26.4345C16.7894 26.4864 16.6857 26.5124 16.5693 26.5124ZM15.9514 26.9605V25.2718H16.0646V25.6751L16.0457 25.8897L16.0693 26.1043V26.9605H15.9514ZM16.5622 26.4062C16.6566 26.4062 16.7415 26.385 16.817 26.3426C16.8924 26.2985 16.9514 26.2372 16.9938 26.1586C17.0379 26.08 17.0599 25.9896 17.0599 25.8874C17.0599 25.7836 17.0379 25.6932 16.9938 25.6161C16.9514 25.5375 16.8924 25.477 16.817 25.4345C16.7415 25.3905 16.6566 25.3685 16.5622 25.3685C16.4679 25.3685 16.383 25.3905 16.3075 25.4345C16.2336 25.477 16.1747 25.5375 16.1306 25.6161C16.0882 25.6932 16.067 25.7836 16.067 25.8874C16.067 25.9896 16.0882 26.08 16.1306 26.1586C16.1747 26.2372 16.2336 26.2985 16.3075 26.3426C16.383 26.385 16.4679 26.4062 16.5622 26.4062ZM19.8412 25.7836C19.7421 25.8276 19.6431 25.8614 19.544 25.885C19.4465 25.9086 19.353 25.9204 19.2633 25.9204C19.0762 25.9204 18.93 25.8756 18.8247 25.7859C18.7209 25.6948 18.669 25.5674 18.669 25.4039V24.852H18.7893V25.3921C18.7893 25.5242 18.8317 25.6271 18.9166 25.701C19.0031 25.7749 19.1218 25.8119 19.2728 25.8119C19.3608 25.8119 19.4528 25.8001 19.5487 25.7765C19.6462 25.7514 19.7437 25.716 19.8412 25.6704V25.7836ZM19.8129 26.5029V24.852H19.9332V26.5029H19.8129ZM20.7081 26.5029V25.3426L20.7411 25.3779H20.227V25.2718H21.3072V25.3779H20.793L20.826 25.3426V26.5029H20.7081ZM22.8136 26.5029V24.852H24.1721V26.5029H24.0518V24.9227L24.0872 24.9605H22.8985L22.9339 24.9227V26.5029H22.8136ZM24.9483 26.5029V25.3426L24.9814 25.3779H24.4672V25.2718H25.5474V25.3779H25.0332L25.0663 25.3426V26.5029H24.9483ZM27.7614 26.5147C27.6387 26.5147 27.5247 26.4943 27.4194 26.4534C27.3156 26.4109 27.2252 26.352 27.1482 26.2765C27.0711 26.201 27.0114 26.113 26.9689 26.0124C26.9265 25.9102 26.9052 25.7985 26.9052 25.6775C26.9052 25.5564 26.9265 25.4455 26.9689 25.3449C27.0114 25.2427 27.0711 25.1539 27.1482 25.0784C27.2268 25.0029 27.318 24.9448 27.4217 24.9039C27.5255 24.8614 27.6387 24.8402 27.7614 24.8402C27.8777 24.8402 27.9862 24.8591 28.0868 24.8968C28.189 24.9345 28.2763 24.9919 28.3486 25.069L28.2732 25.1468C28.2024 25.0776 28.1238 25.0281 28.0373 24.9982C27.9524 24.9668 27.862 24.951 27.7661 24.951C27.6607 24.951 27.5625 24.9691 27.4713 25.0053C27.3817 25.0415 27.303 25.0926 27.2354 25.1586C27.1694 25.2246 27.1175 25.3017 27.0798 25.3897C27.0436 25.4778 27.0255 25.5737 27.0255 25.6775C27.0255 25.7812 27.0436 25.8771 27.0798 25.9652C27.1175 26.0532 27.1694 26.1303 27.2354 26.1963C27.303 26.2624 27.3817 26.3135 27.4713 26.3496C27.5625 26.3858 27.6607 26.4039 27.7661 26.4039C27.862 26.4039 27.9524 26.3889 28.0373 26.3591C28.1238 26.3276 28.2024 26.2765 28.2732 26.2058L28.3486 26.2836C28.2763 26.3606 28.189 26.4188 28.0868 26.4581C27.9862 26.4959 27.8777 26.5147 27.7614 26.5147ZM29.1982 26.5147C29.0992 26.5147 29.0111 26.4974 28.9341 26.4628C28.8586 26.4282 28.7941 26.3771 28.7407 26.3095C28.6888 26.2419 28.6487 26.1586 28.6204 26.0595C28.5921 25.9589 28.5779 25.8433 28.5779 25.7128C28.5779 25.5855 28.5905 25.4762 28.6157 25.385C28.6408 25.2922 28.6738 25.2144 28.7147 25.1515C28.7572 25.087 28.8051 25.0344 28.8586 24.9935C28.912 24.9526 28.9671 24.9204 29.0237 24.8968C29.0819 24.8716 29.1392 24.8528 29.1958 24.8402L29.7407 24.7105L29.7595 24.8213L29.2407 24.9416C29.2045 24.951 29.162 24.9636 29.1133 24.9793C29.0661 24.9935 29.0174 25.0163 28.9671 25.0477C28.9183 25.0776 28.8727 25.1201 28.8303 25.1751C28.7894 25.2286 28.7556 25.2977 28.7289 25.3826C28.7037 25.4676 28.6911 25.5729 28.6911 25.6987C28.6911 25.7223 28.6919 25.7411 28.6935 25.7553C28.6951 25.7694 28.6966 25.7852 28.6982 25.8025C28.7014 25.8182 28.7045 25.8418 28.7076 25.8732L28.6534 25.8449C28.6628 25.7411 28.6935 25.6499 28.7454 25.5713C28.7973 25.4927 28.8649 25.4314 28.9482 25.3874C29.0315 25.3433 29.1259 25.3213 29.2312 25.3213C29.346 25.3213 29.4474 25.3465 29.5355 25.3968C29.6251 25.4455 29.6951 25.5147 29.7454 25.6043C29.7957 25.6924 29.8208 25.7946 29.8208 25.9109C29.8208 26.0273 29.7949 26.1311 29.743 26.2223C29.6927 26.3135 29.6204 26.385 29.526 26.4369C29.4333 26.4888 29.324 26.5147 29.1982 26.5147ZM29.2171 26.4133C29.3114 26.4133 29.3947 26.3921 29.4671 26.3496C29.541 26.3056 29.5984 26.2459 29.6392 26.1704C29.6801 26.0949 29.7006 26.0092 29.7006 25.9133C29.7006 25.8174 29.6801 25.7333 29.6392 25.6609C29.5984 25.5886 29.541 25.532 29.4671 25.4911C29.3947 25.4487 29.3106 25.4275 29.2147 25.4275C29.1204 25.4275 29.0363 25.4479 28.9624 25.4888C28.89 25.5297 28.8334 25.5863 28.7925 25.6586C28.7517 25.7309 28.7312 25.815 28.7312 25.9109C28.7312 26.0069 28.7517 26.0926 28.7925 26.168C28.835 26.2435 28.8924 26.3032 28.9647 26.3473C29.0386 26.3913 29.1227 26.4133 29.2171 26.4133ZM31.4622 26.5029V24.852H32.1273C32.2971 24.852 32.4307 24.8874 32.5282 24.9581C32.6273 25.0289 32.6768 25.1334 32.6768 25.2718C32.6768 25.4086 32.6288 25.5116 32.5329 25.5808C32.4386 25.6499 32.3152 25.6845 32.1626 25.6845L32.2027 25.6374C32.3867 25.6374 32.5259 25.6735 32.6202 25.7459C32.7145 25.8182 32.7617 25.9243 32.7617 26.0643C32.7617 26.2042 32.713 26.3127 32.6155 26.3897C32.518 26.4652 32.3702 26.5029 32.1721 26.5029H31.4622ZM31.5825 26.4015H32.1744C32.327 26.4015 32.4425 26.374 32.5211 26.319C32.6013 26.2624 32.6414 26.1751 32.6414 26.0572C32.6414 25.9377 32.6013 25.8512 32.5211 25.7977C32.4425 25.7427 32.327 25.7152 32.1744 25.7152H31.5825V26.4015ZM31.5825 25.6161H32.1249C32.2617 25.6161 32.367 25.5886 32.4409 25.5336C32.5164 25.477 32.5542 25.3944 32.5542 25.2859C32.5542 25.1759 32.5164 25.0933 32.4409 25.0383C32.367 24.9817 32.2617 24.9534 32.1249 24.9534H31.5825V25.6161ZM33.6862 26.5124C33.5667 26.5124 33.4598 26.4856 33.3655 26.4322C33.2727 26.3787 33.1988 26.3048 33.1438 26.2105C33.0903 26.1161 33.0636 26.0084 33.0636 25.8874C33.0636 25.7647 33.0903 25.6562 33.1438 25.5619C33.1988 25.4676 33.2727 25.3944 33.3655 25.3426C33.4598 25.2891 33.5667 25.2624 33.6862 25.2624C33.7853 25.2624 33.8749 25.2812 33.9551 25.319C34.0369 25.3567 34.1029 25.4133 34.1532 25.4888L34.0659 25.5525C34.0219 25.4896 33.9669 25.4432 33.9009 25.4133C33.8348 25.3834 33.7633 25.3685 33.6862 25.3685C33.5903 25.3685 33.5038 25.3905 33.4268 25.4345C33.3513 25.477 33.2916 25.5375 33.2476 25.6161C33.2051 25.6932 33.1839 25.7836 33.1839 25.8874C33.1839 25.9911 33.2051 26.0823 33.2476 26.1609C33.2916 26.238 33.3513 26.2985 33.4268 26.3426C33.5038 26.385 33.5903 26.4062 33.6862 26.4062C33.7633 26.4062 33.8348 26.3913 33.9009 26.3614C33.9669 26.3315 34.0219 26.2852 34.0659 26.2223L34.1532 26.2859C34.1029 26.3614 34.0369 26.418 33.9551 26.4558C33.8749 26.4935 33.7853 26.5124 33.6862 26.5124Z" fill="#6B1312"/>
<path d="M15.4521 41.5186V39.9195L15.5064 39.9761H15.0488V39.8676H15.5724V41.5186H15.4521ZM19.5902 41.5186V41.4336L20.2884 40.7403C20.3544 40.6742 20.4039 40.6168 20.4369 40.5681C20.47 40.5178 20.492 40.4714 20.503 40.4289C20.5156 40.3865 20.5219 40.3448 20.5219 40.3039C20.5219 40.2002 20.4865 40.1184 20.4157 40.0586C20.345 39.9973 20.2412 39.9667 20.1044 39.9667C20.0006 39.9667 19.9094 39.9824 19.8308 40.0138C19.7538 40.0453 19.6869 40.0932 19.6303 40.1577L19.5454 40.0822C19.6083 40.0099 19.6877 39.9541 19.7836 39.9148C19.8811 39.8755 19.9912 39.8558 20.1138 39.8558C20.2223 39.8558 20.3159 39.8739 20.3945 39.9101C20.4747 39.9447 20.536 39.995 20.5785 40.061C20.6225 40.1255 20.6445 40.2025 20.6445 40.2921C20.6445 40.3456 20.6366 40.3983 20.6209 40.4502C20.6068 40.5005 20.58 40.5539 20.5407 40.6105C20.503 40.6671 20.448 40.7316 20.3756 40.8039L19.72 41.4572L19.6799 41.4101H20.7247V41.5186H19.5902ZM24.4644 41.5303C24.3434 41.5303 24.2302 41.5099 24.1248 41.469C24.021 41.4281 23.9401 41.3747 23.8819 41.3086L23.9432 41.2167C23.9935 41.2748 24.0643 41.3236 24.1555 41.3629C24.2482 41.4006 24.3512 41.4195 24.4644 41.4195C24.6122 41.4195 24.7247 41.3865 24.8017 41.3204C24.8803 41.2544 24.9196 41.1656 24.9196 41.0539C24.9196 40.9439 24.8803 40.8558 24.8017 40.7898C24.7247 40.7222 24.6036 40.6884 24.4385 40.6884H24.3347V40.6011L24.8607 39.9289L24.8772 39.9761H23.9432V39.8676H24.9786V39.9525L24.455 40.6247L24.4031 40.587H24.455C24.6515 40.587 24.7986 40.6302 24.896 40.7167C24.9935 40.8031 25.0423 40.9156 25.0423 41.0539C25.0423 41.1451 25.0203 41.2269 24.9762 41.2992C24.9338 41.3715 24.8693 41.4281 24.7828 41.469C24.6979 41.5099 24.5918 41.5303 24.4644 41.5303ZM28.2965 41.061V40.9737L29.1927 39.8676H29.3272L28.4333 40.9737L28.3673 40.9549H29.7022V41.061H28.2965ZM29.2375 41.5186V41.061L29.2399 40.9549V40.5516H29.3555V41.5186H29.2375ZM33.4085 41.5303C33.289 41.5303 33.1766 41.5099 33.0712 41.469C32.9674 41.4281 32.8865 41.3747 32.8283 41.3086L32.8896 41.2167C32.9399 41.2748 33.0107 41.3236 33.1019 41.3629C33.1931 41.4006 33.2945 41.4195 33.4061 41.4195C33.5586 41.4195 33.6734 41.3849 33.7505 41.3157C33.8275 41.2465 33.866 41.1569 33.866 41.0469C33.866 40.9682 33.8479 40.9006 33.8118 40.844C33.7756 40.7874 33.7143 40.7442 33.6278 40.7143C33.5413 40.6829 33.4234 40.6671 33.274 40.6671H32.9391L33.0264 39.8676H33.9014V39.9761H33.0759L33.1349 39.9195L33.0571 40.62L33.0005 40.5586H33.3C33.4682 40.5586 33.6019 40.5791 33.7009 40.62C33.8016 40.6593 33.8739 40.7151 33.9179 40.7874C33.9635 40.8597 33.9863 40.9447 33.9863 41.0421C33.9863 41.1333 33.9651 41.2159 33.9226 41.2898C33.8802 41.3637 33.8157 41.4226 33.7292 41.4667C33.6443 41.5091 33.5374 41.5303 33.4085 41.5303Z" fill="#FFE4F7"/>
<path d="M6.08511 29.9619V28.3629L6.13935 28.4195H5.68181V28.311H6.20539V29.9619H6.08511Z" fill="#6B1312"/>
<path d="M9.608 29.9619V29.877L10.3061 29.1836C10.3722 29.1176 10.4217 29.0602 10.4547 29.0114C10.4877 28.9611 10.5097 28.9147 10.5207 28.8723C10.5333 28.8298 10.5396 28.7882 10.5396 28.7473C10.5396 28.6435 10.5042 28.5618 10.4335 28.502C10.3627 28.4407 10.2589 28.41 10.1222 28.41C10.0184 28.41 9.92718 28.4258 9.84857 28.4572C9.77152 28.4886 9.7047 28.5366 9.6481 28.6011L9.56319 28.5256C9.62608 28.4533 9.70549 28.3974 9.8014 28.3581C9.89888 28.3188 10.0089 28.2992 10.1316 28.2992C10.2401 28.2992 10.3336 28.3173 10.4122 28.3534C10.4924 28.388 10.5538 28.4383 10.5962 28.5044C10.6402 28.5688 10.6622 28.6459 10.6622 28.7355C10.6622 28.789 10.6544 28.8416 10.6387 28.8935C10.6245 28.9438 10.5978 28.9973 10.5585 29.0539C10.5207 29.1105 10.4657 29.175 10.3934 29.2473L9.73772 29.9006L9.69762 29.8534H10.7424V29.9619H9.608Z" fill="#6B1312"/>
<path d="M32.2283 29.9619L32.9547 28.3676L32.9972 28.4195H31.9429L32.0043 28.3629V28.7355H31.8863V28.311H33.0703V28.3959L32.3604 29.9619H32.2283Z" fill="#6B1312"/>
<path d="M23.4861 35.3868V33.7878L23.5403 33.8444H23.0828V33.7359H23.6064V35.3868H23.4861ZM24.5204 33.7241C24.665 33.7241 24.7861 33.7571 24.8836 33.8232C24.9826 33.8892 25.0573 33.9843 25.1076 34.1085C25.1579 34.2312 25.1831 34.379 25.1831 34.5519C25.1831 34.7375 25.1524 34.8931 25.0911 35.0189C25.0298 35.1447 24.9441 35.2398 24.834 35.3043C24.724 35.3672 24.5958 35.3986 24.4496 35.3986C24.3789 35.3986 24.3112 35.3923 24.2468 35.3798C24.1839 35.3672 24.1265 35.3452 24.0746 35.3137L24.1241 35.217C24.1666 35.2438 24.2161 35.2634 24.2727 35.276C24.3293 35.287 24.3883 35.2925 24.4496 35.2925C24.6351 35.2925 24.7837 35.2328 24.8954 35.1133C25.007 34.9922 25.0628 34.8114 25.0628 34.5708C25.0628 34.5331 25.0605 34.4867 25.0557 34.4317C25.051 34.3766 25.0408 34.3224 25.0251 34.2689L25.0675 34.2807C25.0565 34.3719 25.0259 34.4497 24.9755 34.5142C24.9252 34.5771 24.8608 34.6258 24.7822 34.6604C24.7051 34.695 24.6186 34.7123 24.5227 34.7123C24.4127 34.7123 24.316 34.6927 24.2326 34.6534C24.1509 34.6125 24.0864 34.5551 24.0392 34.4812C23.9936 34.4073 23.9708 34.3208 23.9708 34.2217C23.9708 34.1211 23.9944 34.0339 24.0416 33.96C24.0903 33.8845 24.1556 33.8263 24.2373 33.7854C24.3207 33.7445 24.415 33.7241 24.5204 33.7241ZM24.5251 33.8279C24.4386 33.8279 24.3631 33.8444 24.2987 33.8774C24.2342 33.9089 24.1831 33.9537 24.1454 34.0118C24.1092 34.07 24.0911 34.1392 24.0911 34.2194C24.0911 34.3373 24.1312 34.4317 24.2114 34.5024C24.2916 34.5732 24.4009 34.6085 24.5392 34.6085C24.6289 34.6085 24.7083 34.5912 24.7774 34.5567C24.8466 34.5221 24.9001 34.4749 24.9378 34.4151C24.9771 34.3554 24.9968 34.2886 24.9968 34.2147C24.9968 34.1502 24.9787 34.0889 24.9425 34.0307C24.9064 33.971 24.8537 33.9222 24.7845 33.8845C24.7153 33.8467 24.6289 33.8279 24.5251 33.8279Z" fill="#6B1312"/>
<path d="M19.3774 32.6348V31.0357L19.4316 31.0923H18.9741V30.9838H19.4977V32.6348H19.3774ZM20.2088 32.6348V31.0357L20.2631 31.0923H19.8055V30.9838H20.3291V32.6348H20.2088Z" fill="#6B1312"/>
<path d="M5.92754 35.3868V33.7878L5.98179 33.8444H5.52424V33.7359H6.04782V35.3868H5.92754ZM6.97598 35.3986C6.85649 35.3986 6.74406 35.3782 6.63872 35.3373C6.53494 35.2964 6.45397 35.243 6.39579 35.1769L6.45711 35.085C6.50743 35.1431 6.57818 35.1919 6.66938 35.2312C6.76057 35.2689 6.86199 35.2878 6.97362 35.2878C7.12614 35.2878 7.24092 35.2532 7.31796 35.184C7.39501 35.1148 7.43353 35.0252 7.43353 34.9151C7.43353 34.8365 7.41545 34.7689 7.37928 34.7123C7.34312 34.6557 7.2818 34.6125 7.19532 34.5826C7.10884 34.5511 6.99092 34.5354 6.84155 34.5354H6.50664L6.59391 33.7359H7.46891V33.8444H6.64343L6.7024 33.7878L6.62457 34.4883L6.56796 34.4269H6.86749C7.03573 34.4269 7.16938 34.4474 7.26843 34.4883C7.36906 34.5276 7.44139 34.5834 7.48542 34.6557C7.53101 34.728 7.55381 34.8129 7.55381 34.9104C7.55381 35.0016 7.53259 35.0842 7.49013 35.1581C7.44768 35.232 7.38321 35.2909 7.29674 35.335C7.21183 35.3774 7.10491 35.3986 6.97598 35.3986Z" fill="#6B1312"/>
<path d="M22.4129 38.4531V38.3682L23.1111 37.6748C23.1771 37.6088 23.2266 37.5514 23.2596 37.5027C23.2927 37.4523 23.3147 37.406 23.3257 37.3635C23.3383 37.321 23.3446 37.2794 23.3446 37.2385C23.3446 37.1347 23.3092 37.053 23.2384 36.9932C23.1677 36.9319 23.0639 36.9012 22.9271 36.9012C22.8233 36.9012 22.7321 36.917 22.6535 36.9484C22.5765 36.9799 22.5096 37.0278 22.453 37.0923L22.3681 37.0168C22.431 36.9445 22.5104 36.8887 22.6063 36.8494C22.7038 36.81 22.8139 36.7904 22.9365 36.7904C23.045 36.7904 23.1386 36.8085 23.2172 36.8446C23.2974 36.8792 23.3587 36.9295 23.4012 36.9956C23.4452 37.06 23.4672 37.1371 23.4672 37.2267C23.4672 37.2802 23.4593 37.3328 23.4436 37.3847C23.4295 37.435 23.4027 37.4885 23.3634 37.5451C23.3257 37.6017 23.2707 37.6662 23.1983 37.7385L22.5427 38.3918L22.5026 38.3446H23.5474V38.4531H22.4129ZM24.4307 38.4649C24.2861 38.4649 24.1642 38.4319 24.0652 38.3659C23.9677 38.2998 23.8938 38.2047 23.8435 38.0805C23.7932 37.9563 23.768 37.8085 23.768 37.6371C23.768 37.45 23.7987 37.2943 23.86 37.1701C23.9213 37.0443 24.007 36.95 24.1171 36.8871C24.2271 36.8226 24.3553 36.7904 24.5015 36.7904C24.5723 36.7904 24.6399 36.7967 24.7043 36.8093C24.7688 36.8218 24.8262 36.8438 24.8765 36.8753L24.827 36.972C24.7845 36.9453 24.735 36.9264 24.6784 36.9154C24.6234 36.9028 24.5644 36.8965 24.5015 36.8965C24.316 36.8965 24.1674 36.9571 24.0557 37.0781C23.9441 37.1976 23.8883 37.3777 23.8883 37.6182C23.8883 37.6544 23.8907 37.7008 23.8954 37.7574C23.9001 37.8124 23.9103 37.8666 23.926 37.9201L23.8836 37.9083C23.8946 37.8171 23.9252 37.7393 23.9756 37.6748C24.0259 37.6104 24.0903 37.5616 24.169 37.5286C24.2476 37.494 24.334 37.4767 24.4284 37.4767C24.5385 37.4767 24.6344 37.4972 24.7161 37.538C24.7995 37.5773 24.8639 37.6339 24.9095 37.7078C24.9567 37.7817 24.9803 37.8682 24.9803 37.9673C24.9803 38.0679 24.9559 38.156 24.9072 38.2314C24.86 38.3053 24.7947 38.3627 24.7114 38.4036C24.6296 38.4445 24.5361 38.4649 24.4307 38.4649ZM24.426 38.3611C24.5125 38.3611 24.588 38.3454 24.6524 38.314C24.7169 38.281 24.7672 38.2354 24.8034 38.1772C24.8411 38.1174 24.86 38.0483 24.86 37.9696C24.86 37.8517 24.8199 37.7574 24.7397 37.6866C24.6611 37.6159 24.5518 37.5805 24.4119 37.5805C24.3223 37.5805 24.2429 37.5978 24.1737 37.6324C24.1045 37.667 24.0502 37.7141 24.0109 37.7739C23.9732 37.8336 23.9543 37.9005 23.9543 37.9744C23.9543 38.0388 23.9724 38.1009 24.0086 38.1607C24.0447 38.2188 24.0974 38.2668 24.1666 38.3045C24.2374 38.3423 24.3238 38.3611 24.426 38.3611Z" fill="#6B1312"/>
<path d="M26.7485 35.3868V35.3019L27.4466 34.6085C27.5126 34.5425 27.5622 34.4851 27.5952 34.4364C27.6282 34.3861 27.6502 34.3397 27.6612 34.2972C27.6738 34.2548 27.6801 34.2131 27.6801 34.1722C27.6801 34.0684 27.6447 33.9867 27.574 33.9269C27.5032 33.8656 27.3994 33.835 27.2626 33.835C27.1589 33.835 27.0677 33.8507 26.9891 33.8821C26.912 33.9136 26.8452 33.9615 26.7886 34.026L26.7037 33.9505C26.7666 33.8782 26.846 33.8224 26.9419 33.7831C27.0394 33.7438 27.1494 33.7241 27.2721 33.7241C27.3806 33.7241 27.4741 33.7422 27.5527 33.7784C27.6329 33.8129 27.6943 33.8633 27.7367 33.9293C27.7807 33.9938 27.8027 34.0708 27.8027 34.1604C27.8027 34.2139 27.7949 34.2666 27.7792 34.3184C27.765 34.3688 27.7383 34.4222 27.699 34.4788C27.6612 34.5354 27.6062 34.5999 27.5339 34.6722L26.8782 35.3255L26.8381 35.2784H27.8829V35.3868H26.7485ZM28.7498 35.3986C28.624 35.3986 28.5124 35.3648 28.4149 35.2972C28.3174 35.2296 28.2411 35.1337 28.1861 35.0095C28.1311 34.8837 28.1036 34.7343 28.1036 34.5614C28.1036 34.3884 28.1311 34.2398 28.1861 34.1156C28.2411 33.9898 28.3174 33.8931 28.4149 33.8255C28.5124 33.7579 28.624 33.7241 28.7498 33.7241C28.8771 33.7241 28.9888 33.7579 29.0847 33.8255C29.1822 33.8931 29.2584 33.9898 29.3135 34.1156C29.3685 34.2398 29.396 34.3884 29.396 34.5614C29.396 34.7343 29.3685 34.8837 29.3135 35.0095C29.2584 35.1337 29.1822 35.2296 29.0847 35.2972C28.9888 35.3648 28.8771 35.3986 28.7498 35.3986ZM28.7498 35.2878C28.8551 35.2878 28.9471 35.2595 29.0257 35.2029C29.1043 35.1447 29.1657 35.0614 29.2097 34.9529C29.2537 34.8444 29.2757 34.7139 29.2757 34.5614C29.2757 34.4073 29.2537 34.2768 29.2097 34.1699C29.1657 34.0614 29.1043 33.9788 29.0257 33.9222C28.9471 33.864 28.8551 33.835 28.7498 33.835C28.646 33.835 28.554 33.864 28.4738 33.9222C28.3952 33.9788 28.3339 34.0614 28.2899 34.1699C28.2459 34.2768 28.2238 34.4073 28.2238 34.5614C28.2238 34.7139 28.2459 34.8444 28.2899 34.9529C28.3339 35.0614 28.3952 35.1447 28.4738 35.2029C28.554 35.2595 28.646 35.2878 28.7498 35.2878Z" fill="#6B1312"/>
<path d="M4.84405 38.4531V38.3682L5.54217 37.6748C5.60821 37.6088 5.65773 37.5514 5.69075 37.5027C5.72377 37.4523 5.74578 37.406 5.75679 37.3635C5.76937 37.321 5.77566 37.2794 5.77566 37.2385C5.77566 37.1347 5.74028 37.053 5.66953 36.9932C5.59877 36.9319 5.495 36.9012 5.35821 36.9012C5.25443 36.9012 5.16324 36.917 5.08462 36.9484C5.00758 36.9799 4.94075 37.0278 4.88415 37.0923L4.79924 37.0168C4.86214 36.9445 4.94154 36.8887 5.03745 36.8494C5.13493 36.81 5.245 36.7904 5.36764 36.7904C5.47613 36.7904 5.56968 36.8085 5.6483 36.8446C5.72849 36.8792 5.78981 36.9295 5.83226 36.9956C5.87629 37.06 5.8983 37.1371 5.8983 37.2267C5.8983 37.2802 5.89044 37.3328 5.87471 37.3847C5.86056 37.435 5.83383 37.4885 5.79453 37.5451C5.75679 37.6017 5.70176 37.6662 5.62943 37.7385L4.97377 38.3918L4.93368 38.3446H5.97849V38.4531H4.84405ZM6.17301 38.4531V38.3682L6.87112 37.6748C6.93716 37.6088 6.98669 37.5514 7.01971 37.5027C7.05273 37.4523 7.07474 37.406 7.08574 37.3635C7.09832 37.321 7.10461 37.2794 7.10461 37.2385C7.10461 37.1347 7.06923 37.053 6.99848 36.9932C6.92773 36.9319 6.82395 36.9012 6.68716 36.9012C6.58339 36.9012 6.49219 36.917 6.41357 36.9484C6.33653 36.9799 6.26971 37.0278 6.2131 37.0923L6.1282 37.0168C6.19109 36.9445 6.27049 36.8887 6.3664 36.8494C6.46389 36.81 6.57395 36.7904 6.69659 36.7904C6.80508 36.7904 6.89864 36.8085 6.97725 36.8446C7.05744 36.8792 7.11876 36.9295 7.16122 36.9956C7.20524 37.06 7.22725 37.1371 7.22725 37.2267C7.22725 37.2802 7.21939 37.3328 7.20367 37.3847C7.18952 37.435 7.16279 37.4885 7.12348 37.5451C7.08574 37.6017 7.03071 37.6662 6.95839 37.7385L6.30273 38.3918L6.26263 38.3446H7.30744V38.4531H6.17301Z" fill="#6B1312"/>
<path d="M4.79914 41.5186V41.4336L5.49725 40.7403C5.56329 40.6742 5.61282 40.6168 5.64584 40.5681C5.67886 40.5178 5.70087 40.4714 5.71188 40.4289C5.72446 40.3865 5.73075 40.3448 5.73075 40.3039C5.73075 40.2002 5.69537 40.1184 5.62461 40.0586C5.55386 39.9973 5.45008 39.9667 5.31329 39.9667C5.20952 39.9667 5.11832 39.9824 5.03971 40.0138C4.96266 40.0453 4.89584 40.0932 4.83924 40.1577L4.75433 40.0822C4.81722 40.0099 4.89663 39.9541 4.99254 39.9148C5.09002 39.8755 5.20008 39.8558 5.32273 39.8558C5.43122 39.8558 5.52477 39.8739 5.60339 39.9101C5.68358 39.9447 5.7449 39.995 5.78735 40.061C5.83137 40.1255 5.85339 40.2025 5.85339 40.2921C5.85339 40.3456 5.84553 40.3983 5.8298 40.4502C5.81565 40.5005 5.78892 40.5539 5.74961 40.6105C5.71188 40.6671 5.65685 40.7316 5.58452 40.8039L4.92886 41.4572L4.88876 41.4101H5.93358V41.5186H4.79914ZM6.65876 39.8558C6.80341 39.8558 6.92448 39.8888 7.02196 39.9549C7.12102 40.0209 7.19571 40.116 7.24602 40.2403C7.29633 40.3629 7.32149 40.5107 7.32149 40.6836C7.32149 40.8692 7.29083 41.0248 7.22951 41.1506C7.16819 41.2764 7.0825 41.3715 6.97244 41.436C6.86237 41.4989 6.73423 41.5303 6.588 41.5303C6.51725 41.5303 6.44964 41.5241 6.38517 41.5115C6.32228 41.4989 6.26489 41.4769 6.213 41.4454L6.26253 41.3487C6.30498 41.3755 6.35451 41.3951 6.41111 41.4077C6.46772 41.4187 6.52668 41.4242 6.588 41.4242C6.77354 41.4242 6.92212 41.3645 7.03376 41.245C7.14539 41.1239 7.20121 40.9431 7.20121 40.7025C7.20121 40.6648 7.19885 40.6184 7.19413 40.5634C7.18942 40.5083 7.1792 40.4541 7.16347 40.4006L7.20593 40.4124C7.19492 40.5036 7.16426 40.5814 7.11394 40.6459C7.06363 40.7088 6.99916 40.7575 6.92055 40.7921C6.8435 40.8267 6.75703 40.844 6.66111 40.844C6.55105 40.844 6.45435 40.8244 6.37102 40.7851C6.28926 40.7442 6.22479 40.6868 6.17762 40.6129C6.13203 40.539 6.10923 40.4525 6.10923 40.3535C6.10923 40.2528 6.13281 40.1656 6.17998 40.0917C6.22872 40.0162 6.29398 39.958 6.37574 39.9171C6.45907 39.8763 6.55341 39.8558 6.65876 39.8558ZM6.66347 39.9596C6.57699 39.9596 6.50152 39.9761 6.43706 40.0091C6.37259 40.0406 6.32149 40.0854 6.28376 40.1436C6.24759 40.2017 6.22951 40.2709 6.22951 40.3511C6.22951 40.469 6.2696 40.5634 6.34979 40.6341C6.42998 40.7049 6.53926 40.7403 6.67762 40.7403C6.76725 40.7403 6.84665 40.723 6.91583 40.6884C6.98501 40.6538 7.03847 40.6066 7.07621 40.5469C7.11552 40.4871 7.13517 40.4203 7.13517 40.3464C7.13517 40.2819 7.11709 40.2206 7.08093 40.1624C7.04476 40.1027 6.99209 40.0539 6.92291 40.0162C6.85372 39.9785 6.76725 39.9596 6.66347 39.9596Z" fill="#6B1312"/>
<path d="M9.65811 41.5303C9.53704 41.5303 9.42383 41.5099 9.31849 41.469C9.21471 41.4281 9.13374 41.3747 9.07556 41.3086L9.13688 41.2167C9.1872 41.2748 9.25795 41.3236 9.34915 41.3629C9.44192 41.4006 9.5449 41.4195 9.65811 41.4195C9.80591 41.4195 9.91833 41.3865 9.99538 41.3204C10.074 41.2544 10.1133 41.1656 10.1133 41.0539C10.1133 40.9439 10.074 40.8558 9.99538 40.7898C9.91833 40.7222 9.79726 40.6884 9.63217 40.6884H9.52839V40.6011L10.0543 39.9289L10.0708 39.9761H9.13688V39.8676H10.1723V39.9525L9.64868 40.6247L9.59679 40.587H9.64868C9.84522 40.587 9.99223 40.6302 10.0897 40.7167C10.1872 40.8031 10.2359 40.9156 10.2359 41.0539C10.2359 41.1451 10.2139 41.2269 10.1699 41.2992C10.1275 41.3715 10.063 41.4281 9.97651 41.469C9.8916 41.5099 9.78547 41.5303 9.65811 41.5303ZM11.136 41.5303C11.0102 41.5303 10.8986 41.4965 10.8011 41.4289C10.7036 41.3613 10.6273 41.2654 10.5723 41.1412C10.5173 41.0154 10.4898 40.866 10.4898 40.6931C10.4898 40.5201 10.5173 40.3715 10.5723 40.2473C10.6273 40.1215 10.7036 40.0248 10.8011 39.9572C10.8986 39.8896 11.0102 39.8558 11.136 39.8558C11.2633 39.8558 11.375 39.8896 11.4709 39.9572C11.5684 40.0248 11.6446 40.1215 11.6997 40.2473C11.7547 40.3715 11.7822 40.5201 11.7822 40.6931C11.7822 40.866 11.7547 41.0154 11.6997 41.1412C11.6446 41.2654 11.5684 41.3613 11.4709 41.4289C11.375 41.4965 11.2633 41.5303 11.136 41.5303ZM11.136 41.4195C11.2413 41.4195 11.3333 41.3912 11.4119 41.3346C11.4905 41.2764 11.5519 41.1931 11.5959 41.0846C11.6399 40.9761 11.6619 40.8456 11.6619 40.6931C11.6619 40.539 11.6399 40.4085 11.5959 40.3016C11.5519 40.1931 11.4905 40.1105 11.4119 40.0539C11.3333 39.9958 11.2413 39.9667 11.136 39.9667C11.0322 39.9667 10.9402 39.9958 10.86 40.0539C10.7814 40.1105 10.7201 40.1931 10.6761 40.3016C10.6321 40.4085 10.61 40.539 10.61 40.6931C10.61 40.8456 10.6321 40.9761 10.6761 41.0846C10.7201 41.1931 10.7814 41.2764 10.86 41.3346C10.9402 41.3912 11.0322 41.4195 11.136 41.4195Z" fill="#6B1312"/>
<path d="M13.5737 38.4531V38.3682L14.2718 37.6748C14.3379 37.6088 14.3874 37.5514 14.4204 37.5027C14.4534 37.4523 14.4754 37.406 14.4864 37.3635C14.499 37.321 14.5053 37.2794 14.5053 37.2385C14.5053 37.1347 14.4699 37.053 14.3992 36.9932C14.3284 36.9319 14.2247 36.9012 14.0879 36.9012C13.9841 36.9012 13.8929 36.917 13.8143 36.9484C13.7372 36.9799 13.6704 37.0278 13.6138 37.0923L13.5289 37.0168C13.5918 36.9445 13.6712 36.8887 13.7671 36.8494C13.8646 36.81 13.9747 36.7904 14.0973 36.7904C14.2058 36.7904 14.2993 36.8085 14.378 36.8446C14.4581 36.8792 14.5195 36.9295 14.5619 36.9956C14.6059 37.06 14.628 37.1371 14.628 37.2267C14.628 37.2802 14.6201 37.3328 14.6044 37.3847C14.5902 37.435 14.5635 37.4885 14.5242 37.5451C14.4864 37.6017 14.4314 37.6662 14.3591 37.7385L13.7034 38.3918L13.6633 38.3446H14.7081V38.4531H13.5737ZM14.8452 37.9956V37.9083L15.7414 36.8022H15.8759L14.982 37.9083L14.916 37.8894H16.2509V37.9956H14.8452ZM15.7862 38.4531V37.9956L15.7886 37.8894V37.4861H15.9042V38.4531H15.7862Z" fill="#6B1312"/>
<path d="M14.7056 35.3867V33.7877L14.7598 33.8443H14.3023V33.7358H14.8258V35.3867H14.7056ZM15.5347 35.3867L16.2611 33.7924L16.3035 33.8443H15.2493L15.3106 33.7877V34.1603H15.1927V33.7358H16.3766V33.8207L15.6667 35.3867H15.5347Z" fill="#6B1312"/>
<path d="M14.6146 32.6348V31.0357L14.6688 31.0923H14.2113V30.9838H14.7349V32.6348H14.6146ZM15.7975 32.6466C15.6717 32.6466 15.56 32.6128 15.4626 32.5451C15.3651 32.4775 15.2888 32.3816 15.2338 32.2574C15.1788 32.1316 15.1512 31.9822 15.1512 31.8093C15.1512 31.6363 15.1788 31.4878 15.2338 31.3635C15.2888 31.2378 15.3651 31.1411 15.4626 31.0734C15.56 31.0058 15.6717 30.972 15.7975 30.972C15.9248 30.972 16.0365 31.0058 16.1324 31.0734C16.2299 31.1411 16.3061 31.2378 16.3611 31.3635C16.4162 31.4878 16.4437 31.6363 16.4437 31.8093C16.4437 31.9822 16.4162 32.1316 16.3611 32.2574C16.3061 32.3816 16.2299 32.4775 16.1324 32.5451C16.0365 32.6128 15.9248 32.6466 15.7975 32.6466ZM15.7975 32.5357C15.9028 32.5357 15.9948 32.5074 16.0734 32.4508C16.152 32.3926 16.2133 32.3093 16.2574 32.2008C16.3014 32.0923 16.3234 31.9618 16.3234 31.8093C16.3234 31.6552 16.3014 31.5247 16.2574 31.4178C16.2133 31.3093 16.152 31.2267 16.0734 31.1701C15.9948 31.112 15.9028 31.0829 15.7975 31.0829C15.6937 31.0829 15.6017 31.112 15.5215 31.1701C15.4429 31.2267 15.3816 31.3093 15.3376 31.4178C15.2935 31.5247 15.2715 31.6552 15.2715 31.8093C15.2715 31.9618 15.2935 32.0923 15.3376 32.2008C15.3816 32.3093 15.4429 32.3926 15.5215 32.4508C15.6017 32.5074 15.6937 32.5357 15.7975 32.5357Z" fill="#6B1312"/>
<path d="M10.8966 30.972C11.0413 30.972 11.1623 31.005 11.2598 31.0711C11.3589 31.1371 11.4336 31.2322 11.4839 31.3565C11.5342 31.4791 11.5594 31.6269 11.5594 31.7999C11.5594 31.9854 11.5287 32.1411 11.4674 32.2668C11.4061 32.3926 11.3204 32.4878 11.2103 32.5522C11.1002 32.6151 10.9721 32.6466 10.8259 32.6466C10.7551 32.6466 10.6875 32.6403 10.623 32.6277C10.5601 32.6151 10.5028 32.5931 10.4509 32.5617L10.5004 32.465C10.5428 32.4917 10.5924 32.5113 10.649 32.5239C10.7056 32.5349 10.7645 32.5404 10.8259 32.5404C11.0114 32.5404 11.16 32.4807 11.2716 32.3612C11.3833 32.2401 11.4391 32.0593 11.4391 31.8187C11.4391 31.781 11.4367 31.7346 11.432 31.6796C11.4273 31.6245 11.4171 31.5703 11.4013 31.5168L11.4438 31.5286C11.4328 31.6198 11.4021 31.6977 11.3518 31.7621C11.3015 31.825 11.237 31.8738 11.1584 31.9084C11.0814 31.9429 10.9949 31.9602 10.899 31.9602C10.7889 31.9602 10.6922 31.9406 10.6089 31.9013C10.5271 31.8604 10.4627 31.803 10.4155 31.7291C10.3699 31.6552 10.3471 31.5687 10.3471 31.4697C10.3471 31.369 10.3707 31.2818 10.4178 31.2079C10.4666 31.1324 10.5318 31.0742 10.6136 31.0334C10.6969 30.9925 10.7913 30.972 10.8966 30.972ZM10.9013 31.0758C10.8149 31.0758 10.7394 31.0923 10.6749 31.1253C10.6105 31.1568 10.5594 31.2016 10.5216 31.2598C10.4855 31.3179 10.4674 31.3871 10.4674 31.4673C10.4674 31.5852 10.5075 31.6796 10.5877 31.7503C10.6678 31.8211 10.7771 31.8565 10.9155 31.8565C11.0051 31.8565 11.0845 31.8392 11.1537 31.8046C11.2229 31.77 11.2763 31.7228 11.3141 31.6631C11.3534 31.6033 11.373 31.5365 11.373 31.4626C11.373 31.3981 11.355 31.3368 11.3188 31.2786C11.2826 31.2189 11.23 31.1701 11.1608 31.1324C11.0916 31.0947 11.0051 31.0758 10.9013 31.0758Z" fill="#6B1312"/>
<path d="M14.8376 29.9737C14.7165 29.9737 14.6033 29.9533 14.498 29.9124C14.3942 29.8715 14.3132 29.818 14.2551 29.752L14.3164 29.66C14.3667 29.7182 14.4375 29.7669 14.5287 29.8063C14.6214 29.844 14.7244 29.8629 14.8376 29.8629C14.9854 29.8629 15.0978 29.8298 15.1749 29.7638C15.2535 29.6978 15.2928 29.6089 15.2928 29.4973C15.2928 29.3872 15.2535 29.2992 15.1749 29.2331C15.0978 29.1655 14.9768 29.1317 14.8117 29.1317H14.7079V29.0445L15.2338 28.3723L15.2504 28.4195H14.3164V28.311H15.3518V28.3959L14.8282 29.068L14.7763 29.0303H14.8282C15.0247 29.0303 15.1717 29.0735 15.2692 29.16C15.3667 29.2465 15.4154 29.3589 15.4154 29.4973C15.4154 29.5885 15.3934 29.6702 15.3494 29.7426C15.307 29.8149 15.2425 29.8715 15.156 29.9124C15.0711 29.9533 14.965 29.9737 14.8376 29.9737Z" fill="#6B1312"/>
<path d="M6.57415 32.6466C6.44364 32.6466 6.33201 32.6277 6.23924 32.59C6.14647 32.5522 6.07493 32.4988 6.02462 32.4296C5.97587 32.3604 5.9515 32.2778 5.9515 32.1819C5.9515 32.0892 5.97587 32.0098 6.02462 31.9437C6.07336 31.8777 6.14411 31.8274 6.23688 31.7928C6.32965 31.7566 6.44207 31.7385 6.57415 31.7385C6.70622 31.7385 6.81864 31.7566 6.91141 31.7928C7.00575 31.8274 7.07729 31.8777 7.12603 31.9437C7.17635 32.0098 7.2015 32.0892 7.2015 32.1819C7.2015 32.2778 7.17635 32.3604 7.12603 32.4296C7.07572 32.4988 7.00339 32.5522 6.90905 32.59C6.81628 32.6277 6.70465 32.6466 6.57415 32.6466ZM6.57415 32.5428C6.73295 32.5428 6.85716 32.5106 6.94679 32.4461C7.03641 32.3816 7.08122 32.2936 7.08122 32.1819C7.08122 32.0719 7.03641 31.9846 6.94679 31.9201C6.85716 31.8557 6.73295 31.8234 6.57415 31.8234C6.41534 31.8234 6.29191 31.8557 6.20386 31.9201C6.11581 31.9846 6.07179 32.0719 6.07179 32.1819C6.07179 32.2936 6.11581 32.3816 6.20386 32.4461C6.29191 32.5106 6.41534 32.5428 6.57415 32.5428ZM6.57415 31.8069C6.45465 31.8069 6.35245 31.7912 6.26754 31.7598C6.18421 31.7267 6.12053 31.6796 6.0765 31.6183C6.03248 31.5569 6.01047 31.4838 6.01047 31.3989C6.01047 31.3109 6.03326 31.2354 6.07886 31.1725C6.12603 31.108 6.19207 31.0585 6.27698 31.0239C6.36188 30.9893 6.46094 30.972 6.57415 30.972C6.68893 30.972 6.78877 30.9893 6.87367 31.0239C6.95858 31.0585 7.02462 31.108 7.07179 31.1725C7.11896 31.2354 7.14254 31.3109 7.14254 31.3989C7.14254 31.4838 7.11974 31.5569 7.07415 31.6183C7.03012 31.6796 6.96565 31.7267 6.88075 31.7598C6.79584 31.7912 6.69364 31.8069 6.57415 31.8069ZM6.57415 31.7244C6.71565 31.7244 6.82572 31.6953 6.90433 31.6371C6.98295 31.5789 7.02226 31.5011 7.02226 31.4036C7.02226 31.3014 6.98138 31.2212 6.89962 31.1631C6.81943 31.1049 6.71094 31.0758 6.57415 31.0758C6.43893 31.0758 6.33122 31.1049 6.25103 31.1631C6.17084 31.2212 6.13075 31.3006 6.13075 31.4013C6.13075 31.5003 6.16927 31.5789 6.24631 31.6371C6.32493 31.6953 6.43421 31.7244 6.57415 31.7244Z" fill="#6B1312"/>
<path d="M23.531 32.6348V31.0357L23.5852 31.0923H23.1277V30.9838H23.6513V32.6348H23.531ZM24.0346 32.6348V32.5499L24.7327 31.8565C24.7988 31.7904 24.8483 31.733 24.8813 31.6843C24.9143 31.634 24.9363 31.5876 24.9473 31.5451C24.9599 31.5027 24.9662 31.461 24.9662 31.4201C24.9662 31.3164 24.9308 31.2346 24.8601 31.1749C24.7893 31.1135 24.6856 31.0829 24.5488 31.0829C24.445 31.0829 24.3538 31.0986 24.2752 31.13C24.1981 31.1615 24.1313 31.2095 24.0747 31.2739L23.9898 31.1984C24.0527 31.1261 24.1321 31.0703 24.228 31.031C24.3255 30.9917 24.4356 30.972 24.5582 30.972C24.6667 30.972 24.7602 30.9901 24.8389 31.0263C24.919 31.0609 24.9804 31.1112 25.0228 31.1772C25.0668 31.2417 25.0889 31.3187 25.0889 31.4084C25.0889 31.4618 25.081 31.5145 25.0653 31.5664C25.0511 31.6167 25.0244 31.6701 24.9851 31.7267C24.9473 31.7834 24.8923 31.8478 24.82 31.9201L24.1643 32.5734L24.1242 32.5263H25.169V32.6348H24.0346Z" fill="#6B1312"/>
<path d="M32.2286 32.6348V31.0357L32.2828 31.0923H31.8253V30.9838H32.3489V32.6348H32.2286ZM32.7369 32.1772V32.09L33.6331 30.9838H33.7676L32.8737 32.09L32.8077 32.0711H34.1426V32.1772H32.7369ZM33.678 32.6348V32.1772L33.6803 32.0711V31.6678H33.7959V32.6348H33.678Z" fill="#6B1312"/>
<path d="M19.1142 29.5044V29.4171L20.0104 28.311H20.1448L19.2509 29.4171L19.1849 29.3982H20.5198V29.5044H19.1142ZM20.0552 29.9619V29.5044L20.0576 29.3982V28.9949H20.1731V29.9619H20.0552Z" fill="#6B1312"/>
<path d="M28.6721 29.9737C28.5274 29.9737 28.4056 29.9407 28.3065 29.8746C28.209 29.8086 28.1351 29.7135 28.0848 29.5893C28.0345 29.4651 28.0093 29.3173 28.0093 29.1459C28.0093 28.9588 28.04 28.8031 28.1013 28.6789C28.1626 28.5531 28.2483 28.4588 28.3584 28.3959C28.4685 28.3314 28.5966 28.2992 28.7428 28.2992C28.8136 28.2992 28.8812 28.3055 28.9457 28.318C29.0101 28.3306 29.0675 28.3526 29.1178 28.3841L29.0683 28.4808C29.0258 28.4541 28.9763 28.4352 28.9197 28.4242C28.8647 28.4116 28.8057 28.4053 28.7428 28.4053C28.5573 28.4053 28.4087 28.4658 28.2971 28.5869C28.1854 28.7064 28.1296 28.8864 28.1296 29.127C28.1296 29.1632 28.132 29.2096 28.1367 29.2662C28.1414 29.3212 28.1516 29.3754 28.1674 29.4289L28.1249 29.4171C28.1359 29.3259 28.1666 29.2481 28.2169 29.1836C28.2672 29.1191 28.3317 29.0704 28.4103 29.0374C28.4889 29.0028 28.5754 28.9855 28.6697 28.9855C28.7798 28.9855 28.8757 29.0059 28.9574 29.0468C29.0408 29.0861 29.1052 29.1427 29.1508 29.2166C29.198 29.2905 29.2216 29.377 29.2216 29.4761C29.2216 29.5767 29.1972 29.6647 29.1485 29.7402C29.1013 29.8141 29.0361 29.8715 28.9527 29.9124C28.871 29.9533 28.7774 29.9737 28.6721 29.9737ZM28.6674 29.8699C28.7538 29.8699 28.8293 29.8542 28.8938 29.8228C28.9582 29.7897 29.0085 29.7441 29.0447 29.686C29.0824 29.6262 29.1013 29.557 29.1013 29.4784C29.1013 29.3605 29.0612 29.2662 28.981 29.1954C28.9024 29.1246 28.7931 29.0893 28.6532 29.0893C28.5636 29.0893 28.4842 29.1066 28.415 29.1412C28.3458 29.1758 28.2916 29.2229 28.2523 29.2827C28.2145 29.3424 28.1957 29.4092 28.1957 29.4831C28.1957 29.5476 28.2137 29.6097 28.2499 29.6695C28.2861 29.7276 28.3387 29.7756 28.4079 29.8133C28.4787 29.8511 28.5652 29.8699 28.6674 29.8699Z" fill="#6B1312"/>
<path d="M27.9402 32.6348V31.0357L27.9945 31.0923H27.5369V30.9838H28.0605V32.6348H27.9402ZM28.9604 32.6466C28.8393 32.6466 28.7261 32.6261 28.6208 32.5852C28.517 32.5444 28.436 32.4909 28.3778 32.4249L28.4391 32.3329C28.4895 32.3911 28.5602 32.4398 28.6514 32.4791C28.7442 32.5168 28.8472 32.5357 28.9604 32.5357C29.1082 32.5357 29.2206 32.5027 29.2976 32.4367C29.3763 32.3706 29.4156 32.2818 29.4156 32.1701C29.4156 32.0601 29.3763 31.972 29.2976 31.906C29.2206 31.8384 29.0995 31.8046 28.9344 31.8046H28.8307V31.7173L29.3566 31.0451L29.3731 31.0923H28.4391V30.9838H29.4745V31.0687L28.9509 31.7409L28.8991 31.7032H28.9509C29.1475 31.7032 29.2945 31.7464 29.392 31.8329C29.4895 31.9194 29.5382 32.0318 29.5382 32.1701C29.5382 32.2613 29.5162 32.3431 29.4722 32.4154C29.4297 32.4878 29.3652 32.5444 29.2788 32.5852C29.1939 32.6261 29.0877 32.6466 28.9604 32.6466Z" fill="#6B1312"/>
<path d="M10.2781 35.3867V33.7877L10.3323 33.8443H9.87476V33.7358H10.3983V35.3867H10.2781ZM11.4774 35.3985C11.3328 35.3985 11.2109 35.3655 11.1119 35.2995C11.0144 35.2334 10.9405 35.1383 10.8902 35.0141C10.8399 34.8899 10.8147 34.7421 10.8147 34.5707C10.8147 34.3836 10.8454 34.2279 10.9067 34.1037C10.968 33.9779 11.0537 33.8836 11.1638 33.8207C11.2738 33.7562 11.402 33.724 11.5482 33.724C11.619 33.724 11.6866 33.7303 11.751 33.7429C11.8155 33.7554 11.8729 33.7774 11.9232 33.8089L11.8737 33.9056C11.8312 33.8789 11.7817 33.86 11.7251 33.849C11.6701 33.8364 11.6111 33.8301 11.5482 33.8301C11.3627 33.8301 11.2141 33.8906 11.1024 34.0117C10.9908 34.1312 10.935 34.3112 10.935 34.5518C10.935 34.588 10.9374 34.6344 10.9421 34.691C10.9468 34.746 10.957 34.8002 10.9727 34.8537L10.9303 34.8419C10.9413 34.7507 10.9719 34.6729 11.0223 34.6084C11.0726 34.544 11.137 34.4952 11.2157 34.4622C11.2943 34.4276 11.3807 34.4103 11.4751 34.4103C11.5852 34.4103 11.6811 34.4307 11.7628 34.4716C11.8462 34.5109 11.9106 34.5675 11.9562 34.6414C12.0034 34.7153 12.027 34.8018 12.027 34.9009C12.027 35.0015 12.0026 35.0895 11.9539 35.165C11.9067 35.2389 11.8414 35.2963 11.7581 35.3372C11.6763 35.3781 11.5828 35.3985 11.4774 35.3985ZM11.4727 35.2947C11.5592 35.2947 11.6347 35.279 11.6991 35.2476C11.7636 35.2145 11.8139 35.169 11.8501 35.1108C11.8878 35.051 11.9067 34.9818 11.9067 34.9032C11.9067 34.7853 11.8666 34.691 11.7864 34.6202C11.7078 34.5495 11.5985 34.5141 11.4586 34.5141C11.369 34.5141 11.2896 34.5314 11.2204 34.566C11.1512 34.6006 11.0969 34.6477 11.0576 34.7075C11.0199 34.7672 11.001 34.834 11.001 34.9079C11.001 34.9724 11.0191 35.0345 11.0553 35.0943C11.0914 35.1524 11.1441 35.2004 11.2133 35.2381C11.2841 35.2759 11.3705 35.2947 11.4727 35.2947Z" fill="#6B1312"/>
<path d="M32.0078 35.3867V35.3018L32.706 34.6084C32.772 34.5424 32.8215 34.485 32.8545 34.4362C32.8876 34.3859 32.9096 34.3395 32.9206 34.2971C32.9332 34.2546 32.9394 34.213 32.9394 34.1721C32.9394 34.0683 32.9041 33.9866 32.8333 33.9268C32.7626 33.8655 32.6588 33.8348 32.522 33.8348C32.4182 33.8348 32.327 33.8506 32.2484 33.882C32.1714 33.9134 32.1045 33.9614 32.0479 34.0259L31.963 33.9504C32.0259 33.8781 32.1053 33.8223 32.2012 33.7829C32.2987 33.7436 32.4088 33.724 32.5314 33.724C32.6399 33.724 32.7335 33.7421 32.8121 33.7782C32.8923 33.8128 32.9536 33.8631 32.996 33.9292C33.0401 33.9936 33.0621 34.0707 33.0621 34.1603C33.0621 34.2138 33.0542 34.2664 33.0385 34.3183C33.0243 34.3686 32.9976 34.4221 32.9583 34.4787C32.9206 34.5353 32.8655 34.5998 32.7932 34.6721L32.1376 35.3254L32.0975 35.2782H33.1423V35.3867H32.0078ZM33.6646 35.3867V33.7877L33.7189 33.8443H33.2613V33.7358H33.7849V35.3867H33.6646Z" fill="#6B1312"/>
<path d="M19.048 35.3868V33.7878L19.1023 33.8444H18.6447V33.7359H19.1683V35.3868H19.048ZM20.1979 35.3986C20.0674 35.3986 19.9557 35.3798 19.863 35.342C19.7702 35.3043 19.6987 35.2508 19.6484 35.1817C19.5996 35.1125 19.5752 35.0299 19.5752 34.934C19.5752 34.8412 19.5996 34.7618 19.6484 34.6958C19.6971 34.6298 19.7679 34.5795 19.8606 34.5449C19.9534 34.5087 20.0658 34.4906 20.1979 34.4906C20.33 34.4906 20.4424 34.5087 20.5351 34.5449C20.6295 34.5795 20.701 34.6298 20.7498 34.6958C20.8001 34.7618 20.8252 34.8412 20.8252 34.934C20.8252 35.0299 20.8001 35.1125 20.7498 35.1817C20.6995 35.2508 20.6271 35.3043 20.5328 35.342C20.44 35.3798 20.3284 35.3986 20.1979 35.3986ZM20.1979 35.2949C20.3567 35.2949 20.4809 35.2626 20.5705 35.1982C20.6601 35.1337 20.705 35.0456 20.705 34.934C20.705 34.8239 20.6601 34.7367 20.5705 34.6722C20.4809 34.6078 20.3567 34.5755 20.1979 34.5755C20.0391 34.5755 19.9157 34.6078 19.8276 34.6722C19.7395 34.7367 19.6955 34.8239 19.6955 34.934C19.6955 35.0456 19.7395 35.1337 19.8276 35.1982C19.9157 35.2626 20.0391 35.2949 20.1979 35.2949ZM20.1979 34.559C20.0784 34.559 19.9762 34.5433 19.8913 34.5118C19.8079 34.4788 19.7443 34.4317 19.7002 34.3703C19.6562 34.309 19.6342 34.2359 19.6342 34.151C19.6342 34.0629 19.657 33.9875 19.7026 33.9246C19.7498 33.8601 19.8158 33.8106 19.9007 33.776C19.9856 33.7414 20.0847 33.7241 20.1979 33.7241C20.3127 33.7241 20.4125 33.7414 20.4974 33.776C20.5823 33.8106 20.6484 33.8601 20.6955 33.9246C20.7427 33.9875 20.7663 34.0629 20.7663 34.151C20.7663 34.2359 20.7435 34.309 20.6979 34.3703C20.6539 34.4317 20.5894 34.4788 20.5045 34.5118C20.4196 34.5433 20.3174 34.559 20.1979 34.559ZM20.1979 34.4765C20.3394 34.4765 20.4495 34.4474 20.5281 34.3892C20.6067 34.331 20.646 34.2532 20.646 34.1557C20.646 34.0535 20.6051 33.9733 20.5234 33.9151C20.4432 33.857 20.3347 33.8279 20.1979 33.8279C20.0627 33.8279 19.955 33.857 19.8748 33.9151C19.7946 33.9733 19.7545 34.0527 19.7545 34.1534C19.7545 34.2524 19.793 34.331 19.8701 34.3892C19.9487 34.4474 20.0579 34.4765 20.1979 34.4765Z" fill="#6B1312"/>
<path d="M18.059 38.4531V38.3682L18.7571 37.6748C18.8231 37.6088 18.8727 37.5514 18.9057 37.5027C18.9387 37.4523 18.9607 37.406 18.9717 37.3635C18.9843 37.321 18.9906 37.2794 18.9906 37.2385C18.9906 37.1347 18.9552 37.053 18.8844 36.9932C18.8137 36.9319 18.7099 36.9012 18.5731 36.9012C18.4693 36.9012 18.3782 36.917 18.2995 36.9484C18.2225 36.9799 18.1557 37.0278 18.0991 37.0923L18.0142 37.0168C18.0771 36.9445 18.1565 36.8887 18.2524 36.8494C18.3499 36.81 18.4599 36.7904 18.5826 36.7904C18.691 36.7904 18.7846 36.8085 18.8632 36.8446C18.9434 36.8792 19.0047 36.9295 19.0472 36.9956C19.0912 37.06 19.1132 37.1371 19.1132 37.2267C19.1132 37.2802 19.1054 37.3328 19.0896 37.3847C19.0755 37.435 19.0488 37.4885 19.0094 37.5451C18.9717 37.6017 18.9167 37.6662 18.8443 37.7385L18.1887 38.3918L18.1486 38.3446H19.1934V38.4531H18.059ZM19.9327 38.4649C19.8132 38.4649 19.7008 38.4445 19.5955 38.4036C19.4917 38.3627 19.4107 38.3093 19.3525 38.2432L19.4139 38.1512C19.4642 38.2094 19.5349 38.2582 19.6261 38.2975C19.7173 38.3352 19.8187 38.3541 19.9304 38.3541C20.0829 38.3541 20.1977 38.3195 20.2747 38.2503C20.3518 38.1811 20.3903 38.0915 20.3903 37.9814C20.3903 37.9028 20.3722 37.8352 20.336 37.7786C20.2999 37.722 20.2386 37.6788 20.1521 37.6489C20.0656 37.6174 19.9477 37.6017 19.7983 37.6017H19.4634L19.5507 36.8022H20.4257V36.9107H19.6002L19.6592 36.8541L19.5813 37.5545L19.5247 37.4932H19.8242C19.9925 37.4932 20.1261 37.5137 20.2252 37.5545C20.3258 37.5938 20.3981 37.6497 20.4422 37.722C20.4878 37.7943 20.5106 37.8792 20.5106 37.9767C20.5106 38.0679 20.4893 38.1505 20.4469 38.2244C20.4044 38.2983 20.34 38.3572 20.2535 38.4012C20.1686 38.4437 20.0617 38.4649 19.9327 38.4649Z" fill="#6B1312"/>
<path d="M31.1785 38.4531V38.3682L31.8766 37.6748C31.9426 37.6088 31.9922 37.5514 32.0252 37.5027C32.0582 37.4523 32.0802 37.406 32.0912 37.3635C32.1038 37.321 32.1101 37.2794 32.1101 37.2385C32.1101 37.1347 32.0747 37.053 32.004 36.9932C31.9332 36.9319 31.8294 36.9012 31.6926 36.9012C31.5889 36.9012 31.4977 36.917 31.419 36.9484C31.342 36.9799 31.2752 37.0278 31.2186 37.0923L31.1337 37.0168C31.1966 36.9445 31.276 36.8887 31.3719 36.8494C31.4694 36.81 31.5794 36.7904 31.7021 36.7904C31.8106 36.7904 31.9041 36.8085 31.9827 36.8446C32.0629 36.8792 32.1242 36.9295 32.1667 36.9956C32.2107 37.06 32.2327 37.1371 32.2327 37.2267C32.2327 37.2802 32.2249 37.3328 32.2091 37.3847C32.195 37.435 32.1683 37.4885 32.129 37.5451C32.0912 37.6017 32.0362 37.6662 31.9639 37.7385L31.3082 38.3918L31.2681 38.3446H32.3129V38.4531H31.1785ZM33.1537 38.4649C33.0232 38.4649 32.9115 38.446 32.8188 38.4083C32.726 38.3706 32.6544 38.3171 32.6041 38.2479C32.5554 38.1788 32.531 38.0962 32.531 38.0003C32.531 37.9075 32.5554 37.8281 32.6041 37.7621C32.6529 37.696 32.7236 37.6457 32.8164 37.6111C32.9092 37.575 33.0216 37.5569 33.1537 37.5569C33.2857 37.5569 33.3982 37.575 33.4909 37.6111C33.5853 37.6457 33.6568 37.696 33.7055 37.7621C33.7559 37.8281 33.781 37.9075 33.781 38.0003C33.781 38.0962 33.7559 38.1788 33.7055 38.2479C33.6552 38.3171 33.5829 38.3706 33.4886 38.4083C33.3958 38.446 33.2842 38.4649 33.1537 38.4649ZM33.1537 38.3611C33.3125 38.3611 33.4367 38.3289 33.5263 38.2644C33.6159 38.2 33.6607 38.1119 33.6607 38.0003C33.6607 37.8902 33.6159 37.803 33.5263 37.7385C33.4367 37.674 33.3125 37.6418 33.1537 37.6418C32.9949 37.6418 32.8714 37.674 32.7834 37.7385C32.6953 37.803 32.6513 37.8902 32.6513 38.0003C32.6513 38.1119 32.6953 38.2 32.7834 38.2644C32.8714 38.3289 32.9949 38.3611 33.1537 38.3611ZM33.1537 37.6253C33.0342 37.6253 32.932 37.6096 32.8471 37.5781C32.7637 37.5451 32.7 37.4979 32.656 37.4366C32.612 37.3753 32.59 37.3022 32.59 37.2173C32.59 37.1292 32.6128 37.0538 32.6584 36.9909C32.7055 36.9264 32.7716 36.8769 32.8565 36.8423C32.9414 36.8077 33.0405 36.7904 33.1537 36.7904C33.2684 36.7904 33.3683 36.8077 33.4532 36.8423C33.5381 36.8769 33.6041 36.9264 33.6513 36.9909C33.6985 37.0538 33.7221 37.1292 33.7221 37.2173C33.7221 37.3022 33.6993 37.3753 33.6537 37.4366C33.6096 37.4979 33.5452 37.5451 33.4603 37.5781C33.3754 37.6096 33.2732 37.6253 33.1537 37.6253ZM33.1537 37.5427C33.2952 37.5427 33.4052 37.5137 33.4838 37.4555C33.5625 37.3973 33.6018 37.3195 33.6018 37.222C33.6018 37.1198 33.5609 37.0396 33.4791 36.9814C33.3989 36.9233 33.2905 36.8942 33.1537 36.8942C33.0184 36.8942 32.9107 36.9233 32.8305 36.9814C32.7504 37.0396 32.7103 37.119 32.7103 37.2196C32.7103 37.3187 32.7488 37.3973 32.8258 37.4555C32.9044 37.5137 33.0137 37.5427 33.1537 37.5427Z" fill="#6B1312"/>
<path d="M26.8395 38.4531V38.3682L27.5376 37.6748C27.6036 37.6088 27.6532 37.5514 27.6862 37.5027C27.7192 37.4523 27.7412 37.406 27.7522 37.3635C27.7648 37.321 27.7711 37.2794 27.7711 37.2385C27.7711 37.1347 27.7357 37.053 27.6649 36.9932C27.5942 36.9319 27.4904 36.9012 27.3536 36.9012C27.2499 36.9012 27.1587 36.917 27.08 36.9484C27.003 36.9799 26.9362 37.0278 26.8796 37.0923L26.7947 37.0168C26.8576 36.9445 26.937 36.8887 27.0329 36.8494C27.1304 36.81 27.2404 36.7904 27.3631 36.7904C27.4716 36.7904 27.5651 36.8085 27.6437 36.8446C27.7239 36.8792 27.7852 36.9295 27.8277 36.9956C27.8717 37.06 27.8937 37.1371 27.8937 37.2267C27.8937 37.2802 27.8859 37.3328 27.8701 37.3847C27.856 37.435 27.8293 37.4885 27.7899 37.5451C27.7522 37.6017 27.6972 37.6662 27.6249 37.7385L26.9692 38.3918L26.9291 38.3446H27.9739V38.4531H26.8395ZM28.487 38.4531L29.2134 36.8588L29.2559 36.9107H28.2016L28.2629 36.8541V37.2267H28.145V36.8022H29.329V36.8871L28.6191 38.4531H28.487Z" fill="#6B1312"/>
<path d="M9.25331 38.4531V38.3682L9.95142 37.6748C10.0175 37.6088 10.067 37.5514 10.1 37.5027C10.133 37.4523 10.155 37.406 10.166 37.3635C10.1786 37.321 10.1849 37.2794 10.1849 37.2385C10.1849 37.1347 10.1495 37.053 10.0788 36.9932C10.008 36.9319 9.90425 36.9012 9.76746 36.9012C9.66368 36.9012 9.57249 36.917 9.49387 36.9484C9.41683 36.9799 9.35001 37.0278 9.2934 37.0923L9.2085 37.0168C9.27139 36.9445 9.35079 36.8887 9.4467 36.8494C9.54419 36.81 9.65425 36.7904 9.77689 36.7904C9.88538 36.7904 9.97894 36.8085 10.0576 36.8446C10.1377 36.8792 10.1991 36.9295 10.2415 36.9956C10.2855 37.06 10.3076 37.1371 10.3076 37.2267C10.3076 37.2802 10.2997 37.3328 10.284 37.3847C10.2698 37.435 10.2431 37.4885 10.2038 37.5451C10.166 37.6017 10.111 37.6662 10.0387 37.7385L9.38302 38.3918L9.34293 38.3446H10.3877V38.4531H9.25331ZM11.0988 38.4649C10.9777 38.4649 10.8645 38.4445 10.7591 38.4036C10.6554 38.3627 10.5744 38.3093 10.5162 38.2432L10.5775 38.1512C10.6279 38.2094 10.6986 38.2582 10.7898 38.2975C10.8826 38.3352 10.9856 38.3541 11.0988 38.3541C11.2466 38.3541 11.359 38.321 11.436 38.255C11.5147 38.189 11.554 38.1001 11.554 37.9885C11.554 37.8784 11.5147 37.7904 11.436 37.7244C11.359 37.6567 11.2379 37.6229 11.0728 37.6229H10.9691V37.5357L11.495 36.8635L11.5115 36.9107H10.5775V36.8022H11.6129V36.8871L11.0893 37.5593L11.0375 37.5215H11.0893C11.2859 37.5215 11.4329 37.5648 11.5304 37.6512C11.6279 37.7377 11.6766 37.8501 11.6766 37.9885C11.6766 38.0797 11.6546 38.1615 11.6106 38.2338C11.5681 38.3061 11.5036 38.3627 11.4172 38.4036C11.3323 38.4445 11.2261 38.4649 11.0988 38.4649Z" fill="#6B1312"/>
<path d="M23.3677 29.9737C23.2482 29.9737 23.1358 29.9533 23.0305 29.9124C22.9267 29.8715 22.8457 29.818 22.7875 29.752L22.8489 29.66C22.8992 29.7182 22.9699 29.7669 23.0611 29.8063C23.1523 29.844 23.2537 29.8629 23.3654 29.8629C23.5179 29.8629 23.6327 29.8283 23.7097 29.7591C23.7868 29.6899 23.8253 29.6003 23.8253 29.4902C23.8253 29.4116 23.8072 29.344 23.771 29.2874C23.7349 29.2308 23.6735 29.1875 23.5871 29.1577C23.5006 29.1262 23.3827 29.1105 23.2333 29.1105H22.8984L22.9857 28.311H23.8607V28.4195H23.0352L23.0941 28.3629L23.0163 29.0633L22.9597 29.002H23.2592C23.4275 29.002 23.5611 29.0224 23.6602 29.0633C23.7608 29.1026 23.8331 29.1585 23.8772 29.2308C23.9228 29.3031 23.9456 29.388 23.9456 29.4855C23.9456 29.5767 23.9243 29.6592 23.8819 29.7331C23.8394 29.807 23.775 29.866 23.6885 29.91C23.6036 29.9525 23.4967 29.9737 23.3677 29.9737Z" fill="#6B1312"/>
<path d="M4.51562 27.8047H35.0581" stroke="#6B1312" stroke-width="0.0786164"/>
<rect x="3.96582" y="20.6514" width="31.5252" height="3.14465" rx="1.17925" fill="#6B1312"/>
<path d="M13.8402 23.0539C13.7421 23.0539 13.6509 23.0375 13.5666 23.0048C13.4836 22.9708 13.4113 22.9237 13.3497 22.8633C13.288 22.8029 13.2402 22.7325 13.2063 22.652C13.1723 22.5702 13.1553 22.4809 13.1553 22.3841C13.1553 22.2872 13.1723 22.1985 13.2063 22.118C13.2402 22.0363 13.288 21.9652 13.3497 21.9048C13.4126 21.8444 13.4855 21.7979 13.5685 21.7652C13.6515 21.7312 13.7421 21.7142 13.8402 21.7142C13.9333 21.7142 14.0201 21.7293 14.1006 21.7595C14.1824 21.7897 14.2522 21.8356 14.31 21.8973L14.2497 21.9595C14.1931 21.9042 14.1302 21.8646 14.061 21.8407C13.9931 21.8155 13.9207 21.8029 13.844 21.8029C13.7597 21.8029 13.6811 21.8174 13.6082 21.8463C13.5365 21.8753 13.4736 21.9161 13.4195 21.969C13.3666 22.0218 13.3251 22.0834 13.2949 22.1539C13.266 22.2243 13.2515 22.301 13.2515 22.3841C13.2515 22.4671 13.266 22.5438 13.2949 22.6142C13.3251 22.6847 13.3666 22.7463 13.4195 22.7992C13.4736 22.852 13.5365 22.8929 13.6082 22.9218C13.6811 22.9507 13.7597 22.9652 13.844 22.9652C13.9207 22.9652 13.9931 22.9532 14.061 22.9293C14.1302 22.9042 14.1931 22.8633 14.2497 22.8067L14.31 22.869C14.2522 22.9306 14.1824 22.9771 14.1006 23.0086C14.0201 23.0388 13.9333 23.0539 13.8402 23.0539ZM14.9486 23.052C14.8493 23.052 14.7612 23.0306 14.6845 22.9878C14.609 22.9451 14.5493 22.8859 14.5052 22.8105C14.4625 22.735 14.4411 22.6488 14.4411 22.552C14.4411 22.4539 14.4612 22.3677 14.5015 22.2935C14.543 22.218 14.5996 22.1589 14.6713 22.1161C14.743 22.0734 14.8235 22.052 14.9128 22.052C15.0021 22.052 15.082 22.0727 15.1524 22.1142C15.2241 22.1558 15.2801 22.2142 15.3203 22.2897C15.3618 22.3639 15.3826 22.4501 15.3826 22.5482C15.3826 22.552 15.382 22.5564 15.3807 22.5614C15.3807 22.5652 15.3807 22.5696 15.3807 22.5746H14.5109V22.501H15.3298L15.292 22.5369C15.2933 22.4602 15.2769 22.3916 15.243 22.3312C15.2103 22.2696 15.1656 22.2218 15.109 22.1878C15.0524 22.1526 14.987 22.135 14.9128 22.135C14.8398 22.135 14.7744 22.1526 14.7166 22.1878C14.66 22.2218 14.6153 22.2696 14.5826 22.3312C14.5499 22.3916 14.5335 22.4608 14.5335 22.5388V22.5558C14.5335 22.6363 14.5511 22.708 14.5864 22.7708C14.6228 22.8325 14.6725 22.8809 14.7354 22.9161C14.7983 22.9501 14.87 22.9671 14.9505 22.9671C15.0134 22.9671 15.0719 22.9558 15.126 22.9331C15.1813 22.9105 15.2279 22.8759 15.2656 22.8293L15.3203 22.8916C15.2776 22.9444 15.2235 22.9847 15.1581 23.0124C15.0939 23.0388 15.0241 23.052 14.9486 23.052ZM15.6908 23.0444V22.0595H15.7852V22.5086H16.4531V22.0595H16.5475V23.0444H16.4531V22.5916H15.7852V23.0444H15.6908ZM17.1341 23.0444V22.1161L17.1605 22.1444H16.7492V22.0595H17.6133V22.1444H17.202L17.2284 22.1161V23.0444H17.1341ZM18.431 23.0444V22.6822L18.4518 22.7048H18.1027C17.9794 22.7048 17.8832 22.6784 17.814 22.6256C17.7461 22.5715 17.7121 22.4922 17.7121 22.3878C17.7121 22.2771 17.7492 22.1947 17.8235 22.1407C17.8977 22.0866 17.9958 22.0595 18.1178 22.0595H18.5178V23.0444H18.431ZM17.7065 23.0444L17.9801 22.6652H18.0801L17.8102 23.0444H17.7065ZM18.431 22.6558V22.1142L18.4518 22.1425H18.1235C18.0228 22.1425 17.9448 22.162 17.8895 22.201C17.8341 22.24 17.8065 22.3036 17.8065 22.3916C17.8065 22.5526 17.9084 22.6331 18.1121 22.6331H18.4518L18.431 22.6558ZM19.3547 23.0539C19.2755 23.0539 19.2051 23.04 19.1434 23.0124C19.0831 22.9847 19.0315 22.9438 18.9887 22.8897C18.9472 22.8356 18.9151 22.769 18.8925 22.6897C18.8698 22.6092 18.8585 22.5168 18.8585 22.4124C18.8585 22.3105 18.8686 22.223 18.8887 22.1501C18.9088 22.0759 18.9353 22.0136 18.968 21.9633C19.0019 21.9117 19.0403 21.8696 19.0831 21.8369C19.1258 21.8042 19.1698 21.7784 19.2151 21.7595C19.2617 21.7394 19.3076 21.7243 19.3529 21.7142L19.7887 21.6105L19.8038 21.6992L19.3887 21.7954C19.3598 21.8029 19.3258 21.813 19.2868 21.8256C19.2491 21.8369 19.2101 21.8551 19.1698 21.8803C19.1308 21.9042 19.0944 21.9381 19.0604 21.9822C19.0277 22.0249 19.0007 22.0803 18.9793 22.1482C18.9592 22.2161 18.9491 22.3004 18.9491 22.401C18.9491 22.4199 18.9497 22.435 18.951 22.4463C18.9522 22.4576 18.9535 22.4702 18.9547 22.4841C18.9573 22.4966 18.9598 22.5155 18.9623 22.5407L18.9189 22.518C18.9264 22.435 18.951 22.362 18.9925 22.2992C19.034 22.2363 19.0881 22.1872 19.1547 22.152C19.2214 22.1168 19.2969 22.0992 19.3812 22.0992C19.473 22.0992 19.5541 22.1193 19.6246 22.1595C19.6963 22.1985 19.7522 22.2539 19.7925 22.3256C19.8327 22.396 19.8529 22.4778 19.8529 22.5708C19.8529 22.6639 19.8321 22.7469 19.7906 22.8199C19.7503 22.8929 19.6925 22.9501 19.617 22.9916C19.5428 23.0331 19.4554 23.0539 19.3547 23.0539ZM19.3698 22.9727C19.4453 22.9727 19.512 22.9558 19.5698 22.9218C19.629 22.8866 19.6749 22.8388 19.7076 22.7784C19.7403 22.718 19.7566 22.6495 19.7566 22.5727C19.7566 22.496 19.7403 22.4287 19.7076 22.3708C19.6749 22.313 19.629 22.2677 19.5698 22.235C19.512 22.201 19.4447 22.1841 19.368 22.1841C19.2925 22.1841 19.2252 22.2004 19.1661 22.2331C19.1082 22.2658 19.0629 22.3111 19.0302 22.369C18.9975 22.4268 18.9812 22.4941 18.9812 22.5708C18.9812 22.6476 18.9975 22.7161 19.0302 22.7765C19.0642 22.8369 19.1101 22.8847 19.168 22.9199C19.2271 22.9551 19.2944 22.9727 19.3698 22.9727ZM20.659 23.052C20.5722 23.052 20.4936 23.0319 20.4231 22.9916C20.354 22.9514 20.2986 22.8941 20.2571 22.8199C20.2169 22.7444 20.1967 22.6551 20.1967 22.552C20.1967 22.4488 20.2169 22.3602 20.2571 22.2859C20.2986 22.2105 20.354 22.1526 20.4231 22.1124C20.4936 22.0721 20.5722 22.052 20.659 22.052C20.7521 22.052 20.8351 22.0734 20.9081 22.1161C20.9823 22.1576 21.0401 22.2161 21.0816 22.2916C21.1244 22.3671 21.1458 22.4539 21.1458 22.552C21.1458 22.6501 21.1244 22.7369 21.0816 22.8124C21.0401 22.8878 20.9823 22.9469 20.9081 22.9897C20.8351 23.0312 20.7521 23.052 20.659 23.052ZM20.1647 23.4105V22.0595H20.2552V22.3822L20.2401 22.5539L20.259 22.7256V23.4105H20.1647ZM20.6533 22.9671C20.7288 22.9671 20.7967 22.9501 20.8571 22.9161C20.9175 22.8809 20.9647 22.8319 20.9986 22.769C21.0338 22.7061 21.0514 22.6337 21.0514 22.552C21.0514 22.469 21.0338 22.3966 20.9986 22.335C20.9647 22.2721 20.9175 22.2237 20.8571 22.1897C20.7967 22.1545 20.7288 22.1369 20.6533 22.1369C20.5779 22.1369 20.5099 22.1545 20.4496 22.1897C20.3904 22.2237 20.3433 22.2721 20.3081 22.335C20.2741 22.3966 20.2571 22.469 20.2571 22.552C20.2571 22.6337 20.2741 22.7061 20.3081 22.769C20.3433 22.8319 20.3904 22.8809 20.4496 22.9161C20.5099 22.9501 20.5779 22.9671 20.6533 22.9671ZM21.8469 22.418C21.9689 22.4193 22.062 22.4463 22.1262 22.4992C22.1903 22.5507 22.2224 22.6268 22.2224 22.7275C22.2224 22.8319 22.1884 22.9117 22.1205 22.9671C22.0526 23.0224 21.9538 23.0495 21.8243 23.0482L21.4526 23.0444V22.0595H21.5469V22.4142L21.8469 22.418ZM21.8224 22.9727C21.923 22.974 21.9985 22.9539 22.0488 22.9124C22.1004 22.8708 22.1262 22.8092 22.1262 22.7275C22.1262 22.6482 22.101 22.5891 22.0507 22.5501C22.0004 22.5111 21.9243 22.491 21.8224 22.4897L21.5469 22.4878V22.969L21.8224 22.9727ZM22.8536 23.0444V22.9765L23.4121 22.4218C23.465 22.369 23.5046 22.323 23.531 22.2841C23.5574 22.2438 23.575 22.2067 23.5838 22.1727C23.5939 22.1388 23.5989 22.1054 23.5989 22.0727C23.5989 21.9897 23.5706 21.9243 23.514 21.8765C23.4574 21.8275 23.3744 21.8029 23.265 21.8029C23.1819 21.8029 23.109 21.8155 23.0461 21.8407C22.9845 21.8658 22.931 21.9042 22.8857 21.9558L22.8178 21.8954C22.8681 21.8375 22.9316 21.7929 23.0084 21.7614C23.0863 21.73 23.1744 21.7142 23.2725 21.7142C23.3593 21.7142 23.4341 21.7287 23.497 21.7576C23.5612 21.7853 23.6102 21.8256 23.6442 21.8784C23.6794 21.93 23.697 21.9916 23.697 22.0633C23.697 22.1061 23.6907 22.1482 23.6782 22.1897C23.6669 22.23 23.6455 22.2727 23.614 22.318C23.5838 22.3633 23.5398 22.4149 23.4819 22.4727L22.9574 22.9954L22.9253 22.9576H23.7612V23.0444H22.8536ZM24.4547 23.0539C24.354 23.0539 24.2647 23.0268 24.1867 22.9727C24.1088 22.9186 24.0478 22.8419 24.0037 22.7425C23.9597 22.6419 23.9377 22.5224 23.9377 22.3841C23.9377 22.2457 23.9597 22.1268 24.0037 22.0275C24.0478 21.9268 24.1088 21.8495 24.1867 21.7954C24.2647 21.7413 24.354 21.7142 24.4547 21.7142C24.5566 21.7142 24.6459 21.7413 24.7226 21.7954C24.8006 21.8495 24.8616 21.9268 24.9056 22.0275C24.9496 22.1268 24.9717 22.2457 24.9717 22.3841C24.9717 22.5224 24.9496 22.6419 24.9056 22.7425C24.8616 22.8419 24.8006 22.9186 24.7226 22.9727C24.6459 23.0268 24.5566 23.0539 24.4547 23.0539ZM24.4547 22.9652C24.539 22.9652 24.6125 22.9425 24.6754 22.8973C24.7383 22.8507 24.7874 22.7841 24.8226 22.6973C24.8578 22.6105 24.8754 22.5061 24.8754 22.3841C24.8754 22.2608 24.8578 22.1564 24.8226 22.0708C24.7874 21.9841 24.7383 21.918 24.6754 21.8727C24.6125 21.8262 24.539 21.8029 24.4547 21.8029C24.3717 21.8029 24.2981 21.8262 24.2339 21.8727C24.171 21.918 24.122 21.9841 24.0867 22.0708C24.0515 22.1564 24.0339 22.2608 24.0339 22.3841C24.0339 22.5061 24.0515 22.6105 24.0867 22.6973C24.122 22.7841 24.171 22.8507 24.2339 22.8973C24.2981 22.9425 24.3717 22.9652 24.4547 22.9652ZM25.1532 23.0444V22.9765L25.7117 22.4218C25.7645 22.369 25.8041 22.323 25.8305 22.2841C25.8569 22.2438 25.8746 22.2067 25.8834 22.1727C25.8934 22.1388 25.8985 22.1054 25.8985 22.0727C25.8985 21.9897 25.8702 21.9243 25.8135 21.8765C25.7569 21.8275 25.6739 21.8029 25.5645 21.8029C25.4815 21.8029 25.4085 21.8155 25.3456 21.8407C25.284 21.8658 25.2305 21.9042 25.1852 21.9558L25.1173 21.8954C25.1676 21.8375 25.2312 21.7929 25.3079 21.7614C25.3859 21.73 25.4739 21.7142 25.572 21.7142C25.6588 21.7142 25.7337 21.7287 25.7966 21.7576C25.8607 21.7853 25.9098 21.8256 25.9437 21.8784C25.979 21.93 25.9966 21.9916 25.9966 22.0633C25.9966 22.1061 25.9903 22.1482 25.9777 22.1897C25.9664 22.23 25.945 22.2727 25.9135 22.318C25.8834 22.3633 25.8393 22.4149 25.7815 22.4727L25.2569 22.9954L25.2249 22.9576H26.0607V23.0444H25.1532ZM26.6522 23.0539C26.5566 23.0539 26.4666 23.0375 26.3824 23.0048C26.2994 22.9721 26.2346 22.9293 26.188 22.8765L26.2371 22.8029C26.2773 22.8495 26.3339 22.8885 26.4069 22.9199C26.4799 22.9501 26.561 22.9652 26.6503 22.9652C26.7723 22.9652 26.8641 22.9375 26.9258 22.8822C26.9874 22.8268 27.0182 22.7551 27.0182 22.6671C27.0182 22.6042 27.0038 22.5501 26.9748 22.5048C26.9459 22.4595 26.8968 22.4249 26.8277 22.401C26.7585 22.3759 26.6641 22.3633 26.5446 22.3633H26.2767L26.3465 21.7237H27.0465V21.8105H26.3861L26.4333 21.7652L26.3711 22.3256L26.3258 22.2765H26.5654C26.7 22.2765 26.8069 22.2929 26.8861 22.3256C26.9666 22.357 27.0245 22.4017 27.0597 22.4595C27.0962 22.5174 27.1144 22.5853 27.1144 22.6633C27.1144 22.7363 27.0975 22.8023 27.0635 22.8614C27.0295 22.9205 26.978 22.9677 26.9088 23.0029C26.8409 23.0369 26.7553 23.0539 26.6522 23.0539Z" fill="white"/>
<path d="M5.06641 22.2237L6.36358 21.4067V23.0407L5.06641 22.2237Z" fill="white"/>
<path d="M34.4688 22.1451L33.1716 22.9621V21.3281L34.4688 22.1451Z" fill="white"/>
<rect x="1.5" y="10.5" width="38" height="38" rx="7.5" fill="white" stroke="#6B1312" stroke-width="3"/>
<rect x="8" y="7" width="3" height="7" rx="1.5" fill="#6B1312"/>
<rect x="14" y="7" width="3" height="7" rx="1.5" fill="#6B1312"/>
<rect x="20" y="7" width="3" height="7" rx="1.5" fill="#6B1312"/>
<rect x="26" y="7" width="3" height="7" rx="1.5" fill="#6B1312"/>
<rect x="32" y="7" width="3" height="7" rx="1.5" fill="#6B1312"/>
<rect x="1" y="17" width="38" height="3" fill="#6B1312"/>
<rect x="10" y="25" width="4" height="4" fill="#6B1312"/>
<rect x="19" y="25" width="4" height="4" fill="#6B1312"/>
<rect x="28" y="25" width="4" height="4" fill="#6B1312"/>
<rect x="10" y="32" width="4" height="4" fill="#6B1312"/>
<rect x="19" y="32" width="4" height="4" fill="#6B1312"/>
<rect x="28" y="32" width="4" height="4" fill="#6B1312"/>
<rect x="10" y="39" width="4" height="4" fill="#6B1312"/>
<rect x="19" y="39" width="4" height="4" fill="#6B1312"/>
<rect x="28" y="39" width="4" height="4" fill="#6B1312"/>
</svg>
