<svg width="36" height="23" viewBox="0 0 36 23" fill="none" xmlns="http://www.w3.org/2000/svg">
<path d="M16.0889 3.00488H18.2441C18.2906 3.00501 18.3281 3.04241 18.3281 3.08887V3.58105H16.0049V3.08887C16.0049 3.04233 16.0423 3.00488 16.0889 3.00488Z" fill="#FFFEFE" stroke="#6B1312" stroke-width="0.00886918"/>
<path d="M18.3281 8.19336V8.68555C18.3279 8.73182 18.2904 8.7694 18.2441 8.76953H16.0889C16.0425 8.76953 16.0051 8.7319 16.0049 8.68555V8.19336H18.3281Z" fill="#FFFEFE" stroke="#6B1312" stroke-width="0.00886918"/>
<rect x="16.0044" y="7.61662" width="2.32372" height="0.576497" fill="#FFFEFE" stroke="#6B1312" stroke-width="0.00886918"/>
<rect x="16.0044" y="7.04057" width="2.32372" height="0.576497" fill="#FFFEFE" stroke="#6B1312" stroke-width="0.00886918"/>
<rect x="16.0044" y="6.46342" width="2.32372" height="0.576497" fill="#FFFEFE" stroke="#6B1312" stroke-width="0.00886918"/>
<rect x="16.0044" y="5.88713" width="2.32372" height="0.576497" fill="#FFFEFE" stroke="#6B1312" stroke-width="0.00886918"/>
<rect x="16.0044" y="5.31108" width="2.32372" height="0.576497" fill="#FFFEFE" stroke="#6B1312" stroke-width="0.00886918"/>
<rect x="16.0044" y="4.73393" width="2.32372" height="0.576497" fill="#FFFEFE" stroke="#6B1312" stroke-width="0.00886918"/>
<rect x="16.0044" y="4.15763" width="2.32372" height="0.576497" fill="#FFFEFE" stroke="#6B1312" stroke-width="0.00886918"/>
<rect x="16.0044" y="3.58158" width="2.32372" height="0.576497" fill="#FFFEFE" stroke="#6B1312" stroke-width="0.00886918"/>
<path d="M17.0456 3.13281V2.95241L17.0518 2.9588H17.0001V2.94656H17.0592V3.13281H17.0456ZM17.1791 3.13414C17.1649 3.13414 17.1523 3.13033 17.1413 3.1227C17.1303 3.11507 17.1217 3.10425 17.1155 3.09024C17.1093 3.07605 17.1062 3.0592 17.1062 3.03969C17.1062 3.02017 17.1093 3.00341 17.1155 2.9894C17.1217 2.97521 17.1303 2.9643 17.1413 2.95667C17.1523 2.94904 17.1649 2.94523 17.1791 2.94523C17.1935 2.94523 17.2061 2.94904 17.2169 2.95667C17.2279 2.9643 17.2365 2.97521 17.2427 2.9894C17.2489 3.00341 17.252 3.02017 17.252 3.03969C17.252 3.0592 17.2489 3.07605 17.2427 3.09024C17.2365 3.10425 17.2279 3.11507 17.2169 3.1227C17.2061 3.13033 17.1935 3.13414 17.1791 3.13414ZM17.1791 3.12164C17.191 3.12164 17.2014 3.11844 17.2102 3.11206C17.2191 3.1055 17.226 3.09609 17.231 3.08385C17.2359 3.07162 17.2384 3.05689 17.2384 3.03969C17.2384 3.0223 17.2359 3.00758 17.231 2.99552C17.226 2.98328 17.2191 2.97397 17.2102 2.96758C17.2014 2.96102 17.191 2.95773 17.1791 2.95773C17.1674 2.95773 17.157 2.96102 17.148 2.96758C17.1391 2.97397 17.1322 2.98328 17.1272 2.99552C17.1222 3.00758 17.1198 3.0223 17.1198 3.03969C17.1198 3.05689 17.1222 3.07162 17.1272 3.08385C17.1322 3.09609 17.1391 3.1055 17.148 3.11206C17.157 3.11844 17.1674 3.12164 17.1791 3.12164ZM17.2933 3.01547C17.2903 3.01547 17.2876 3.01441 17.2853 3.01228C17.2832 3.00997 17.2821 3.00722 17.2821 3.00403C17.2821 3.00084 17.2832 2.99818 17.2853 2.99605C17.2876 2.99392 17.2903 2.99286 17.2933 2.99286C17.2963 2.99286 17.2989 2.99392 17.301 2.99605C17.3033 2.99818 17.3045 3.00084 17.3045 3.00403C17.3045 3.00722 17.3033 3.00997 17.301 3.01228C17.2989 3.01441 17.2963 3.01547 17.2933 3.01547ZM17.2933 3.13388C17.2903 3.13388 17.2876 3.13281 17.2853 3.13068C17.2832 3.12838 17.2821 3.12563 17.2821 3.12244C17.2821 3.11924 17.2832 3.11658 17.2853 3.11445C17.2876 3.11232 17.2903 3.11126 17.2933 3.11126C17.2963 3.11126 17.2989 3.11232 17.301 3.11445C17.3033 3.11658 17.3045 3.11924 17.3045 3.12244C17.3045 3.12563 17.3033 3.12838 17.301 3.13068C17.2989 3.13281 17.2963 3.13388 17.2933 3.13388ZM17.4075 3.13414C17.3933 3.13414 17.3807 3.13033 17.3697 3.1227C17.3587 3.11507 17.3501 3.10425 17.3439 3.09024C17.3377 3.07605 17.3346 3.0592 17.3346 3.03969C17.3346 3.02017 17.3377 3.00341 17.3439 2.9894C17.3501 2.97521 17.3587 2.9643 17.3697 2.95667C17.3807 2.94904 17.3933 2.94523 17.4075 2.94523C17.4219 2.94523 17.4345 2.94904 17.4453 2.95667C17.4563 2.9643 17.4649 2.97521 17.4711 2.9894C17.4773 3.00341 17.4804 3.02017 17.4804 3.03969C17.4804 3.0592 17.4773 3.07605 17.4711 3.09024C17.4649 3.10425 17.4563 3.11507 17.4453 3.1227C17.4345 3.13033 17.4219 3.13414 17.4075 3.13414ZM17.4075 3.12164C17.4194 3.12164 17.4298 3.11844 17.4386 3.11206C17.4475 3.1055 17.4544 3.09609 17.4594 3.08385C17.4643 3.07162 17.4668 3.05689 17.4668 3.03969C17.4668 3.0223 17.4643 3.00758 17.4594 2.99552C17.4544 2.98328 17.4475 2.97397 17.4386 2.96758C17.4298 2.96102 17.4194 2.95773 17.4075 2.95773C17.3958 2.95773 17.3854 2.96102 17.3764 2.96758C17.3675 2.97397 17.3606 2.98328 17.3556 2.99552C17.3506 3.00758 17.3482 3.0223 17.3482 3.03969C17.3482 3.05689 17.3506 3.07162 17.3556 3.08385C17.3606 3.09609 17.3675 3.1055 17.3764 3.11206C17.3854 3.11844 17.3958 3.12164 17.4075 3.12164ZM17.5826 3.13414C17.5684 3.13414 17.5558 3.13033 17.5448 3.1227C17.5338 3.11507 17.5252 3.10425 17.519 3.09024C17.5128 3.07605 17.5097 3.0592 17.5097 3.03969C17.5097 3.02017 17.5128 3.00341 17.519 2.9894C17.5252 2.97521 17.5338 2.9643 17.5448 2.95667C17.5558 2.94904 17.5684 2.94523 17.5826 2.94523C17.597 2.94523 17.6096 2.94904 17.6204 2.95667C17.6314 2.9643 17.64 2.97521 17.6462 2.9894C17.6524 3.00341 17.6555 3.02017 17.6555 3.03969C17.6555 3.0592 17.6524 3.07605 17.6462 3.09024C17.64 3.10425 17.6314 3.11507 17.6204 3.1227C17.6096 3.13033 17.597 3.13414 17.5826 3.13414ZM17.5826 3.12164C17.5945 3.12164 17.6049 3.11844 17.6138 3.11206C17.6226 3.1055 17.6295 3.09609 17.6345 3.08385C17.6395 3.07162 17.642 3.05689 17.642 3.03969C17.642 3.0223 17.6395 3.00758 17.6345 2.99552C17.6295 2.98328 17.6226 2.97397 17.6138 2.96758C17.6049 2.96102 17.5945 2.95773 17.5826 2.95773C17.5709 2.95773 17.5605 2.96102 17.5515 2.96758C17.5426 2.97397 17.5357 2.98328 17.5307 2.99552C17.5258 3.00758 17.5233 3.0223 17.5233 3.03969C17.5233 3.05689 17.5258 3.07162 17.5307 3.08385C17.5357 3.09609 17.5426 3.1055 17.5515 3.11206C17.5605 3.11844 17.5709 3.12164 17.5826 3.12164Z" fill="#6B1312"/>
<path d="M17.1303 3.70984V3.52944L17.1364 3.53583H17.0848V3.52359H17.1438V3.70984H17.1303ZM17.2241 3.70984V3.52944L17.2302 3.53583H17.1786V3.52359H17.2376V3.70984H17.2241ZM17.2966 3.5925C17.2936 3.5925 17.2909 3.59144 17.2886 3.58931C17.2865 3.587 17.2854 3.58425 17.2854 3.58106C17.2854 3.57787 17.2865 3.5752 17.2886 3.57308C17.2909 3.57095 17.2936 3.56988 17.2966 3.56988C17.2996 3.56988 17.3022 3.57095 17.3043 3.57308C17.3066 3.5752 17.3077 3.57787 17.3077 3.58106C17.3077 3.58425 17.3066 3.587 17.3043 3.58931C17.3022 3.59144 17.2996 3.5925 17.2966 3.5925ZM17.2966 3.7109C17.2936 3.7109 17.2909 3.70984 17.2886 3.70771C17.2865 3.7054 17.2854 3.70265 17.2854 3.69946C17.2854 3.69627 17.2865 3.69361 17.2886 3.69148C17.2909 3.68935 17.2936 3.68829 17.2966 3.68829C17.2996 3.68829 17.3022 3.68935 17.3043 3.69148C17.3066 3.69361 17.3077 3.69627 17.3077 3.69946C17.3077 3.70265 17.3066 3.7054 17.3043 3.70771C17.3022 3.70984 17.2996 3.7109 17.2966 3.7109ZM17.4108 3.71117C17.3966 3.71117 17.384 3.70736 17.373 3.69973C17.362 3.6921 17.3534 3.68128 17.3472 3.66727C17.341 3.65308 17.3379 3.63622 17.3379 3.61671C17.3379 3.5972 17.341 3.58044 17.3472 3.56642C17.3534 3.55223 17.362 3.54132 17.373 3.5337C17.384 3.52607 17.3966 3.52226 17.4108 3.52226C17.4251 3.52226 17.4377 3.52607 17.4486 3.5337C17.4596 3.54132 17.4682 3.55223 17.4744 3.56642C17.4806 3.58044 17.4837 3.5972 17.4837 3.61671C17.4837 3.63622 17.4806 3.65308 17.4744 3.66727C17.4682 3.68128 17.4596 3.6921 17.4486 3.69973C17.4377 3.70736 17.4251 3.71117 17.4108 3.71117ZM17.4108 3.69866C17.4227 3.69866 17.433 3.69547 17.4419 3.68908C17.4508 3.68252 17.4577 3.67312 17.4627 3.66088C17.4676 3.64864 17.4701 3.63392 17.4701 3.61671C17.4701 3.59933 17.4676 3.58461 17.4627 3.57254C17.4577 3.5603 17.4508 3.55099 17.4419 3.54461C17.433 3.53804 17.4227 3.53476 17.4108 3.53476C17.3991 3.53476 17.3887 3.53804 17.3796 3.54461C17.3708 3.55099 17.3639 3.5603 17.3589 3.57254C17.3539 3.58461 17.3514 3.59933 17.3514 3.61671C17.3514 3.63392 17.3539 3.64864 17.3589 3.66088C17.3639 3.67312 17.3708 3.68252 17.3796 3.68908C17.3887 3.69547 17.3991 3.69866 17.4108 3.69866ZM17.5859 3.71117C17.5717 3.71117 17.5591 3.70736 17.5481 3.69973C17.5371 3.6921 17.5285 3.68128 17.5223 3.66727C17.5161 3.65308 17.513 3.63622 17.513 3.61671C17.513 3.5972 17.5161 3.58044 17.5223 3.56642C17.5285 3.55223 17.5371 3.54132 17.5481 3.5337C17.5591 3.52607 17.5717 3.52226 17.5859 3.52226C17.6003 3.52226 17.6129 3.52607 17.6237 3.5337C17.6347 3.54132 17.6433 3.55223 17.6495 3.56642C17.6557 3.58044 17.6588 3.5972 17.6588 3.61671C17.6588 3.63622 17.6557 3.65308 17.6495 3.66727C17.6433 3.68128 17.6347 3.6921 17.6237 3.69973C17.6129 3.70736 17.6003 3.71117 17.5859 3.71117ZM17.5859 3.69866C17.5978 3.69866 17.6082 3.69547 17.617 3.68908C17.6259 3.68252 17.6328 3.67312 17.6378 3.66088C17.6428 3.64864 17.6452 3.63392 17.6452 3.61671C17.6452 3.59933 17.6428 3.58461 17.6378 3.57254C17.6328 3.5603 17.6259 3.55099 17.617 3.54461C17.6082 3.53804 17.5978 3.53476 17.5859 3.53476C17.5742 3.53476 17.5638 3.53804 17.5548 3.54461C17.5459 3.55099 17.539 3.5603 17.534 3.57254C17.5291 3.58461 17.5266 3.59933 17.5266 3.61671C17.5266 3.63392 17.5291 3.64864 17.534 3.66088C17.539 3.67312 17.5459 3.68252 17.5548 3.68908C17.5638 3.69547 17.5742 3.69866 17.5859 3.69866Z" fill="#6B1312"/>
<path d="M17.0758 4.28625V4.10586L17.0819 4.11224H17.0303V4.1H17.0894V4.28625H17.0758ZM17.1326 4.28625V4.27668L17.2114 4.19845C17.2189 4.191 17.2244 4.18453 17.2282 4.17903C17.2319 4.17335 17.2344 4.16812 17.2356 4.16333C17.237 4.15854 17.2377 4.15384 17.2377 4.14923C17.2377 4.13752 17.2338 4.12829 17.2258 4.12155C17.2178 4.11464 17.2061 4.11118 17.1906 4.11118C17.1789 4.11118 17.1687 4.11295 17.1598 4.1165C17.1511 4.12005 17.1436 4.12546 17.1372 4.13273L17.1276 4.12421C17.1347 4.11606 17.1436 4.10976 17.1545 4.10532C17.1655 4.10089 17.1779 4.09867 17.1917 4.09867C17.204 4.09867 17.2145 4.10071 17.2234 4.10479C17.2324 4.10869 17.2393 4.11437 17.2441 4.12182C17.2491 4.12909 17.2516 4.13778 17.2516 4.1479C17.2516 4.15393 17.2507 4.15987 17.2489 4.16572C17.2473 4.1714 17.2443 4.17743 17.2399 4.18382C17.2356 4.1902 17.2294 4.19747 17.2212 4.20563L17.1473 4.27934L17.1428 4.27402H17.2606V4.28625H17.1326ZM17.2983 4.16892C17.2953 4.16892 17.2926 4.16785 17.2903 4.16572C17.2882 4.16342 17.2871 4.16067 17.2871 4.15747C17.2871 4.15428 17.2882 4.15162 17.2903 4.14949C17.2926 4.14736 17.2953 4.1463 17.2983 4.1463C17.3013 4.1463 17.3039 4.14736 17.306 4.14949C17.3083 4.15162 17.3094 4.15428 17.3094 4.15747C17.3094 4.16067 17.3083 4.16342 17.306 4.16572C17.3039 4.16785 17.3013 4.16892 17.2983 4.16892ZM17.2983 4.28732C17.2953 4.28732 17.2926 4.28625 17.2903 4.28413C17.2882 4.28182 17.2871 4.27907 17.2871 4.27588C17.2871 4.27269 17.2882 4.27002 17.2903 4.2679C17.2926 4.26577 17.2953 4.2647 17.2983 4.2647C17.3013 4.2647 17.3039 4.26577 17.306 4.2679C17.3083 4.27002 17.3094 4.27269 17.3094 4.27588C17.3094 4.27907 17.3083 4.28182 17.306 4.28413C17.3039 4.28625 17.3013 4.28732 17.2983 4.28732ZM17.4125 4.28759C17.3983 4.28759 17.3857 4.28377 17.3747 4.27614C17.3637 4.26852 17.3551 4.2577 17.3489 4.24368C17.3427 4.22949 17.3396 4.21264 17.3396 4.19313C17.3396 4.17362 17.3427 4.15685 17.3489 4.14284C17.3551 4.12865 17.3637 4.11774 17.3747 4.11011C17.3857 4.10249 17.3983 4.09867 17.4125 4.09867C17.4268 4.09867 17.4394 4.10249 17.4503 4.11011C17.4612 4.11774 17.4699 4.12865 17.4761 4.14284C17.4823 4.15685 17.4854 4.17362 17.4854 4.19313C17.4854 4.21264 17.4823 4.22949 17.4761 4.24368C17.4699 4.2577 17.4612 4.26852 17.4503 4.27614C17.4394 4.28377 17.4268 4.28759 17.4125 4.28759ZM17.4125 4.27508C17.4244 4.27508 17.4347 4.27189 17.4436 4.2655C17.4525 4.25894 17.4594 4.24954 17.4644 4.2373C17.4693 4.22506 17.4718 4.21033 17.4718 4.19313C17.4718 4.17574 17.4693 4.16102 17.4644 4.14896C17.4594 4.13672 17.4525 4.12741 17.4436 4.12102C17.4347 4.11446 17.4244 4.11118 17.4125 4.11118C17.4008 4.11118 17.3904 4.11446 17.3813 4.12102C17.3725 4.12741 17.3655 4.13672 17.3606 4.14896C17.3556 4.16102 17.3531 4.17574 17.3531 4.19313C17.3531 4.21033 17.3556 4.22506 17.3606 4.2373C17.3655 4.24954 17.3725 4.25894 17.3813 4.2655C17.3904 4.27189 17.4008 4.27508 17.4125 4.27508ZM17.5876 4.28759C17.5734 4.28759 17.5608 4.28377 17.5498 4.27614C17.5388 4.26852 17.5302 4.2577 17.524 4.24368C17.5178 4.22949 17.5147 4.21264 17.5147 4.19313C17.5147 4.17362 17.5178 4.15685 17.524 4.14284C17.5302 4.12865 17.5388 4.11774 17.5498 4.11011C17.5608 4.10249 17.5734 4.09867 17.5876 4.09867C17.602 4.09867 17.6146 4.10249 17.6254 4.11011C17.6364 4.11774 17.645 4.12865 17.6512 4.14284C17.6574 4.15685 17.6605 4.17362 17.6605 4.19313C17.6605 4.21264 17.6574 4.22949 17.6512 4.24368C17.645 4.2577 17.6364 4.26852 17.6254 4.27614C17.6146 4.28377 17.602 4.28759 17.5876 4.28759ZM17.5876 4.27508C17.5995 4.27508 17.6099 4.27189 17.6187 4.2655C17.6276 4.25894 17.6345 4.24954 17.6395 4.2373C17.6445 4.22506 17.6469 4.21033 17.6469 4.19313C17.6469 4.17574 17.6445 4.16102 17.6395 4.14896C17.6345 4.13672 17.6276 4.12741 17.6187 4.12102C17.6099 4.11446 17.5995 4.11118 17.5876 4.11118C17.5759 4.11118 17.5655 4.11446 17.5565 4.12102C17.5476 4.12741 17.5407 4.13672 17.5357 4.14896C17.5307 4.16102 17.5283 4.17574 17.5283 4.19313C17.5283 4.21033 17.5307 4.22506 17.5357 4.2373C17.5407 4.24954 17.5476 4.25894 17.5565 4.2655C17.5655 4.27189 17.5759 4.27508 17.5876 4.27508Z" fill="#6B1312"/>
<path d="M17.0766 4.8623V4.68191L17.0827 4.68829H17.0311V4.67605H17.0902V4.8623H17.0766ZM17.1917 4.86364C17.178 4.86364 17.1653 4.86133 17.1534 4.85672C17.1417 4.85211 17.1325 4.84607 17.126 4.83862L17.1329 4.82825C17.1386 4.83481 17.1465 4.84031 17.1568 4.84474C17.1673 4.849 17.1789 4.85113 17.1917 4.85113C17.2084 4.85113 17.2211 4.8474 17.2297 4.83995C17.2386 4.8325 17.243 4.82248 17.243 4.80989C17.243 4.79747 17.2386 4.78754 17.2297 4.78009C17.2211 4.77246 17.2074 4.76865 17.1888 4.76865H17.1771V4.7588L17.2364 4.68297L17.2383 4.68829H17.1329V4.67605H17.2497V4.68563L17.1906 4.76146L17.1848 4.7572H17.1906C17.2128 4.7572 17.2294 4.76208 17.2404 4.77184C17.2514 4.7816 17.2569 4.79428 17.2569 4.80989C17.2569 4.82018 17.2544 4.8294 17.2494 4.83756C17.2446 4.84572 17.2374 4.85211 17.2276 4.85672C17.218 4.86133 17.2061 4.86364 17.1917 4.86364ZM17.2975 4.74497C17.2945 4.74497 17.2918 4.7439 17.2895 4.74177C17.2874 4.73947 17.2863 4.73672 17.2863 4.73352C17.2863 4.73033 17.2874 4.72767 17.2895 4.72554C17.2918 4.72341 17.2945 4.72235 17.2975 4.72235C17.3005 4.72235 17.3031 4.72341 17.3052 4.72554C17.3075 4.72767 17.3087 4.73033 17.3087 4.73352C17.3087 4.73672 17.3075 4.73947 17.3052 4.74177C17.3031 4.7439 17.3005 4.74497 17.2975 4.74497ZM17.2975 4.86337C17.2945 4.86337 17.2918 4.8623 17.2895 4.86018C17.2874 4.85787 17.2863 4.85512 17.2863 4.85193C17.2863 4.84873 17.2874 4.84607 17.2895 4.84395C17.2918 4.84182 17.2945 4.84075 17.2975 4.84075C17.3005 4.84075 17.3031 4.84182 17.3052 4.84395C17.3075 4.84607 17.3087 4.84873 17.3087 4.85193C17.3087 4.85512 17.3075 4.85787 17.3052 4.86018C17.3031 4.8623 17.3005 4.86337 17.2975 4.86337ZM17.4117 4.86364C17.3975 4.86364 17.3849 4.85982 17.3739 4.85219C17.3629 4.84457 17.3543 4.83375 17.3481 4.81973C17.3419 4.80554 17.3388 4.78869 17.3388 4.76918C17.3388 4.74967 17.3419 4.7329 17.3481 4.71889C17.3543 4.7047 17.3629 4.69379 17.3739 4.68616C17.3849 4.67854 17.3975 4.67472 17.4117 4.67472C17.4261 4.67472 17.4387 4.67854 17.4495 4.68616C17.4605 4.69379 17.4691 4.7047 17.4753 4.71889C17.4815 4.7329 17.4846 4.74967 17.4846 4.76918C17.4846 4.78869 17.4815 4.80554 17.4753 4.81973C17.4691 4.83375 17.4605 4.84457 17.4495 4.85219C17.4387 4.85982 17.4261 4.86364 17.4117 4.86364ZM17.4117 4.85113C17.4236 4.85113 17.4339 4.84794 17.4428 4.84155C17.4517 4.83499 17.4586 4.82559 17.4636 4.81335C17.4685 4.80111 17.471 4.78638 17.471 4.76918C17.471 4.75179 17.4685 4.73707 17.4636 4.72501C17.4586 4.71277 17.4517 4.70346 17.4428 4.69707C17.4339 4.69051 17.4236 4.68723 17.4117 4.68723C17.4 4.68723 17.3896 4.69051 17.3806 4.69707C17.3717 4.70346 17.3648 4.71277 17.3598 4.72501C17.3548 4.73707 17.3524 4.75179 17.3524 4.76918C17.3524 4.78638 17.3548 4.80111 17.3598 4.81335C17.3648 4.82559 17.3717 4.83499 17.3806 4.84155C17.3896 4.84794 17.4 4.85113 17.4117 4.85113ZM17.5868 4.86364C17.5726 4.86364 17.56 4.85982 17.549 4.85219C17.538 4.84457 17.5294 4.83375 17.5232 4.81973C17.517 4.80554 17.5139 4.78869 17.5139 4.76918C17.5139 4.74967 17.517 4.7329 17.5232 4.71889C17.5294 4.7047 17.538 4.69379 17.549 4.68616C17.56 4.67854 17.5726 4.67472 17.5868 4.67472C17.6012 4.67472 17.6138 4.67854 17.6246 4.68616C17.6356 4.69379 17.6442 4.7047 17.6504 4.71889C17.6566 4.7329 17.6597 4.74967 17.6597 4.76918C17.6597 4.78869 17.6566 4.80554 17.6504 4.81973C17.6442 4.83375 17.6356 4.84457 17.6246 4.85219C17.6138 4.85982 17.6012 4.86364 17.5868 4.86364ZM17.5868 4.85113C17.5987 4.85113 17.6091 4.84794 17.618 4.84155C17.6268 4.83499 17.6337 4.82559 17.6387 4.81335C17.6437 4.80111 17.6462 4.78638 17.6462 4.76918C17.6462 4.75179 17.6437 4.73707 17.6387 4.72501C17.6337 4.71277 17.6268 4.70346 17.618 4.69707C17.6091 4.69051 17.5987 4.68723 17.5868 4.68723C17.5751 4.68723 17.5647 4.69051 17.5557 4.69707C17.5468 4.70346 17.5399 4.71277 17.5349 4.72501C17.53 4.73707 17.5275 4.75179 17.5275 4.76918C17.5275 4.78638 17.53 4.80111 17.5349 4.81335C17.5399 4.82559 17.5468 4.83499 17.5557 4.84155C17.5647 4.84794 17.5751 4.85113 17.5868 4.85113Z" fill="#6B1312"/>
<path d="M17.0454 5.43945V5.25905L17.0515 5.26544H16.9999V5.2532H17.059V5.43945H17.0454ZM17.1027 5.38783V5.37799L17.2038 5.2532H17.219L17.1182 5.37799L17.1107 5.37586H17.2613V5.38783H17.1027ZM17.2089 5.43945V5.38783L17.2092 5.37586V5.33036H17.2222V5.43945H17.2089ZM17.2936 5.32211C17.2905 5.32211 17.2879 5.32105 17.2856 5.31892C17.2834 5.31661 17.2824 5.31387 17.2824 5.31067C17.2824 5.30748 17.2834 5.30482 17.2856 5.30269C17.2879 5.30056 17.2905 5.2995 17.2936 5.2995C17.2966 5.2995 17.2991 5.30056 17.3013 5.30269C17.3036 5.30482 17.3047 5.30748 17.3047 5.31067C17.3047 5.31387 17.3036 5.31661 17.3013 5.31892C17.2991 5.32105 17.2966 5.32211 17.2936 5.32211ZM17.2936 5.44052C17.2905 5.44052 17.2879 5.43945 17.2856 5.43732C17.2834 5.43502 17.2824 5.43227 17.2824 5.42908C17.2824 5.42588 17.2834 5.42322 17.2856 5.42109C17.2879 5.41897 17.2905 5.4179 17.2936 5.4179C17.2966 5.4179 17.2991 5.41897 17.3013 5.42109C17.3036 5.42322 17.3047 5.42588 17.3047 5.42908C17.3047 5.43227 17.3036 5.43502 17.3013 5.43732C17.2991 5.43945 17.2966 5.44052 17.2936 5.44052ZM17.4078 5.44078C17.3936 5.44078 17.381 5.43697 17.37 5.42934C17.359 5.42171 17.3504 5.41089 17.3442 5.39688C17.338 5.38269 17.3348 5.36584 17.3348 5.34633C17.3348 5.32681 17.338 5.31005 17.3442 5.29604C17.3504 5.28185 17.359 5.27094 17.37 5.26331C17.381 5.25568 17.3936 5.25187 17.4078 5.25187C17.4221 5.25187 17.4347 5.25568 17.4455 5.26331C17.4565 5.27094 17.4651 5.28185 17.4713 5.29604C17.4776 5.31005 17.4807 5.32681 17.4807 5.34633C17.4807 5.36584 17.4776 5.38269 17.4713 5.39688C17.4651 5.41089 17.4565 5.42171 17.4455 5.42934C17.4347 5.43697 17.4221 5.44078 17.4078 5.44078ZM17.4078 5.42828C17.4196 5.42828 17.43 5.42509 17.4389 5.4187C17.4478 5.41214 17.4547 5.40273 17.4596 5.3905C17.4646 5.37826 17.4671 5.36353 17.4671 5.34633C17.4671 5.32894 17.4646 5.31422 17.4596 5.30216C17.4547 5.28992 17.4478 5.28061 17.4389 5.27422C17.43 5.26766 17.4196 5.26438 17.4078 5.26438C17.396 5.26438 17.3857 5.26766 17.3766 5.27422C17.3678 5.28061 17.3608 5.28992 17.3559 5.30216C17.3509 5.31422 17.3484 5.32894 17.3484 5.34633C17.3484 5.36353 17.3509 5.37826 17.3559 5.3905C17.3608 5.40273 17.3678 5.41214 17.3766 5.4187C17.3857 5.42509 17.396 5.42828 17.4078 5.42828ZM17.5829 5.44078C17.5687 5.44078 17.5561 5.43697 17.5451 5.42934C17.5341 5.42171 17.5255 5.41089 17.5193 5.39688C17.5131 5.38269 17.51 5.36584 17.51 5.34633C17.51 5.32681 17.5131 5.31005 17.5193 5.29604C17.5255 5.28185 17.5341 5.27094 17.5451 5.26331C17.5561 5.25568 17.5687 5.25187 17.5829 5.25187C17.5973 5.25187 17.6098 5.25568 17.6207 5.26331C17.6317 5.27094 17.6403 5.28185 17.6465 5.29604C17.6527 5.31005 17.6558 5.32681 17.6558 5.34633C17.6558 5.36584 17.6527 5.38269 17.6465 5.39688C17.6403 5.41089 17.6317 5.42171 17.6207 5.42934C17.6098 5.43697 17.5973 5.44078 17.5829 5.44078ZM17.5829 5.42828C17.5948 5.42828 17.6051 5.42509 17.614 5.4187C17.6229 5.41214 17.6298 5.40273 17.6348 5.3905C17.6397 5.37826 17.6422 5.36353 17.6422 5.34633C17.6422 5.32894 17.6397 5.31422 17.6348 5.30216C17.6298 5.28992 17.6229 5.28061 17.614 5.27422C17.6051 5.26766 17.5948 5.26438 17.5829 5.26438C17.5712 5.26438 17.5608 5.26766 17.5518 5.27422C17.5429 5.28061 17.536 5.28992 17.531 5.30216C17.526 5.31422 17.5235 5.32894 17.5235 5.34633C17.5235 5.36353 17.526 5.37826 17.531 5.3905C17.536 5.40273 17.5429 5.41214 17.5518 5.4187C17.5608 5.42509 17.5712 5.42828 17.5829 5.42828Z" fill="#6B1312"/>
<path d="M17.0766 6.01575V5.83535L17.0827 5.84173H17.0311V5.82949H17.0902V6.01575H17.0766ZM17.1949 6.01708C17.1814 6.01708 17.1687 6.01477 17.1568 6.01016C17.1451 6.00555 17.136 5.99952 17.1294 5.99207L17.1364 5.98169C17.142 5.98825 17.15 5.99375 17.1603 5.99819C17.1706 6.00244 17.182 6.00457 17.1946 6.00457C17.2118 6.00457 17.2248 6.00067 17.2335 5.99286C17.2422 5.98506 17.2465 5.97495 17.2465 5.96253C17.2465 5.95366 17.2445 5.94604 17.2404 5.93965C17.2363 5.93326 17.2294 5.92839 17.2196 5.92502C17.2099 5.92147 17.1966 5.91969 17.1797 5.91969H17.1419L17.1518 5.82949H17.2505V5.84173H17.1574L17.164 5.83535L17.1552 5.91437L17.1489 5.90745H17.1826C17.2016 5.90745 17.2167 5.90976 17.2279 5.91437C17.2392 5.91881 17.2474 5.9251 17.2524 5.93326C17.2575 5.94142 17.2601 5.951 17.2601 5.962C17.2601 5.97229 17.2577 5.9816 17.2529 5.98994C17.2481 5.99827 17.2408 6.00493 17.2311 6.00989C17.2215 6.01468 17.2094 6.01708 17.1949 6.01708ZM17.2975 5.89841C17.2945 5.89841 17.2918 5.89734 17.2895 5.89521C17.2874 5.89291 17.2863 5.89016 17.2863 5.88697C17.2863 5.88377 17.2874 5.88111 17.2895 5.87898C17.2918 5.87686 17.2945 5.87579 17.2975 5.87579C17.3005 5.87579 17.3031 5.87686 17.3052 5.87898C17.3075 5.88111 17.3087 5.88377 17.3087 5.88697C17.3087 5.89016 17.3075 5.89291 17.3052 5.89521C17.3031 5.89734 17.3005 5.89841 17.2975 5.89841ZM17.2975 6.01681C17.2945 6.01681 17.2918 6.01575 17.2895 6.01362C17.2874 6.01131 17.2863 6.00856 17.2863 6.00537C17.2863 6.00218 17.2874 5.99952 17.2895 5.99739C17.2918 5.99526 17.2945 5.99419 17.2975 5.99419C17.3005 5.99419 17.3031 5.99526 17.3052 5.99739C17.3075 5.99952 17.3087 6.00218 17.3087 6.00537C17.3087 6.00856 17.3075 6.01131 17.3052 6.01362C17.3031 6.01575 17.3005 6.01681 17.2975 6.01681ZM17.4117 6.01708C17.3975 6.01708 17.3849 6.01326 17.3739 6.00564C17.3629 5.99801 17.3543 5.98719 17.3481 5.97318C17.3419 5.95898 17.3388 5.94213 17.3388 5.92262C17.3388 5.90311 17.3419 5.88635 17.3481 5.87233C17.3543 5.85814 17.3629 5.84723 17.3739 5.83961C17.3849 5.83198 17.3975 5.82816 17.4117 5.82816C17.4261 5.82816 17.4387 5.83198 17.4495 5.83961C17.4605 5.84723 17.4691 5.85814 17.4753 5.87233C17.4815 5.88635 17.4846 5.90311 17.4846 5.92262C17.4846 5.94213 17.4815 5.95898 17.4753 5.97318C17.4691 5.98719 17.4605 5.99801 17.4495 6.00564C17.4387 6.01326 17.4261 6.01708 17.4117 6.01708ZM17.4117 6.00457C17.4236 6.00457 17.4339 6.00138 17.4428 5.99499C17.4517 5.98843 17.4586 5.97903 17.4636 5.96679C17.4685 5.95455 17.471 5.93983 17.471 5.92262C17.471 5.90524 17.4685 5.89051 17.4636 5.87845C17.4586 5.86621 17.4517 5.8569 17.4428 5.85051C17.4339 5.84395 17.4236 5.84067 17.4117 5.84067C17.4 5.84067 17.3896 5.84395 17.3806 5.85051C17.3717 5.8569 17.3648 5.86621 17.3598 5.87845C17.3548 5.89051 17.3524 5.90524 17.3524 5.92262C17.3524 5.93983 17.3548 5.95455 17.3598 5.96679C17.3648 5.97903 17.3717 5.98843 17.3806 5.99499C17.3896 6.00138 17.4 6.00457 17.4117 6.00457ZM17.5868 6.01708C17.5726 6.01708 17.56 6.01326 17.549 6.00564C17.538 5.99801 17.5294 5.98719 17.5232 5.97318C17.517 5.95898 17.5139 5.94213 17.5139 5.92262C17.5139 5.90311 17.517 5.88635 17.5232 5.87233C17.5294 5.85814 17.538 5.84723 17.549 5.83961C17.56 5.83198 17.5726 5.82816 17.5868 5.82816C17.6012 5.82816 17.6138 5.83198 17.6246 5.83961C17.6356 5.84723 17.6442 5.85814 17.6504 5.87233C17.6566 5.88635 17.6597 5.90311 17.6597 5.92262C17.6597 5.94213 17.6566 5.95898 17.6504 5.97318C17.6442 5.98719 17.6356 5.99801 17.6246 6.00564C17.6138 6.01326 17.6012 6.01708 17.5868 6.01708ZM17.5868 6.00457C17.5987 6.00457 17.6091 6.00138 17.618 5.99499C17.6268 5.98843 17.6337 5.97903 17.6387 5.96679C17.6437 5.95455 17.6462 5.93983 17.6462 5.92262C17.6462 5.90524 17.6437 5.89051 17.6387 5.87845C17.6337 5.86621 17.6268 5.8569 17.618 5.85051C17.6091 5.84395 17.5987 5.84067 17.5868 5.84067C17.5751 5.84067 17.5647 5.84395 17.5557 5.85051C17.5468 5.8569 17.5399 5.86621 17.5349 5.87845C17.53 5.89051 17.5275 5.90524 17.5275 5.92262C17.5275 5.93983 17.53 5.95455 17.5349 5.96679C17.5399 5.97903 17.5468 5.98843 17.5557 5.99499C17.5647 6.00138 17.5751 6.00457 17.5868 6.00457Z" fill="#6B1312"/>
<path d="M17.062 6.5918V6.4114L17.0681 6.41778H17.0165V6.40554H17.0755V6.5918H17.062ZM17.1973 6.59313C17.181 6.59313 17.1672 6.5894 17.156 6.58195C17.145 6.5745 17.1367 6.56377 17.131 6.54976C17.1254 6.53574 17.1225 6.51907 17.1225 6.49973C17.1225 6.47863 17.126 6.46107 17.1329 6.44705C17.1398 6.43286 17.1495 6.42222 17.1619 6.41512C17.1743 6.40785 17.1888 6.40421 17.2053 6.40421C17.2132 6.40421 17.2209 6.40492 17.2281 6.40634C17.2354 6.40776 17.2419 6.41024 17.2476 6.41379L17.242 6.4247C17.2372 6.42169 17.2316 6.41956 17.2252 6.41832C17.219 6.4169 17.2124 6.41619 17.2053 6.41619C17.1843 6.41619 17.1676 6.42302 17.155 6.43667C17.1424 6.45016 17.1361 6.47047 17.1361 6.49761C17.1361 6.50169 17.1363 6.50692 17.1369 6.5133C17.1374 6.51951 17.1386 6.52563 17.1403 6.53166L17.1356 6.53033C17.1368 6.52005 17.1403 6.51126 17.1459 6.50399C17.1516 6.49672 17.1589 6.49122 17.1677 6.4875C17.1766 6.48359 17.1864 6.48164 17.197 6.48164C17.2094 6.48164 17.2203 6.48395 17.2295 6.48856C17.2389 6.49299 17.2461 6.49938 17.2513 6.50772C17.2566 6.51605 17.2593 6.52581 17.2593 6.53699C17.2593 6.54834 17.2565 6.55827 17.251 6.56679C17.2457 6.57512 17.2383 6.5816 17.2289 6.58621C17.2197 6.59082 17.2092 6.59313 17.1973 6.59313ZM17.1967 6.58142C17.2065 6.58142 17.215 6.57965 17.2223 6.5761C17.2296 6.57237 17.2352 6.56723 17.2393 6.56067C17.2436 6.55393 17.2457 6.54612 17.2457 6.53725C17.2457 6.52395 17.2412 6.5133 17.2321 6.50532C17.2233 6.49734 17.2109 6.49335 17.1952 6.49335C17.185 6.49335 17.1761 6.4953 17.1683 6.4992C17.1605 6.50311 17.1544 6.50843 17.1499 6.51517C17.1457 6.52191 17.1435 6.52945 17.1435 6.53778C17.1435 6.54506 17.1456 6.55206 17.1497 6.5588C17.1537 6.56537 17.1597 6.57078 17.1675 6.57503C17.1755 6.57929 17.1852 6.58142 17.1967 6.58142ZM17.2945 6.47446C17.2915 6.47446 17.2889 6.47339 17.2866 6.47126C17.2844 6.46896 17.2834 6.46621 17.2834 6.46302C17.2834 6.45982 17.2844 6.45716 17.2866 6.45503C17.2889 6.45291 17.2915 6.45184 17.2945 6.45184C17.2976 6.45184 17.3001 6.45291 17.3023 6.45503C17.3046 6.45716 17.3057 6.45982 17.3057 6.46302C17.3057 6.46621 17.3046 6.46896 17.3023 6.47126C17.3001 6.47339 17.2976 6.47446 17.2945 6.47446ZM17.2945 6.59286C17.2915 6.59286 17.2889 6.5918 17.2866 6.58967C17.2844 6.58736 17.2834 6.58461 17.2834 6.58142C17.2834 6.57823 17.2844 6.57557 17.2866 6.57344C17.2889 6.57131 17.2915 6.57024 17.2945 6.57024C17.2976 6.57024 17.3001 6.57131 17.3023 6.57344C17.3046 6.57557 17.3057 6.57823 17.3057 6.58142C17.3057 6.58461 17.3046 6.58736 17.3023 6.58967C17.3001 6.5918 17.2976 6.59286 17.2945 6.59286ZM17.4087 6.59313C17.3946 6.59313 17.382 6.58931 17.371 6.58169C17.36 6.57406 17.3514 6.56324 17.3452 6.54922C17.3389 6.53503 17.3358 6.51818 17.3358 6.49867C17.3358 6.47916 17.3389 6.4624 17.3452 6.44838C17.3514 6.43419 17.36 6.42328 17.371 6.41565C17.382 6.40803 17.3946 6.40421 17.4087 6.40421C17.4231 6.40421 17.4357 6.40803 17.4465 6.41565C17.4575 6.42328 17.4661 6.43419 17.4723 6.44838C17.4785 6.4624 17.4817 6.47916 17.4817 6.49867C17.4817 6.51818 17.4785 6.53503 17.4723 6.54922C17.4661 6.56324 17.4575 6.57406 17.4465 6.58169C17.4357 6.58931 17.4231 6.59313 17.4087 6.59313ZM17.4087 6.58062C17.4206 6.58062 17.431 6.57743 17.4399 6.57104C17.4487 6.56448 17.4557 6.55508 17.4606 6.54284C17.4656 6.5306 17.4681 6.51588 17.4681 6.49867C17.4681 6.48129 17.4656 6.46656 17.4606 6.4545C17.4557 6.44226 17.4487 6.43295 17.4399 6.42656C17.431 6.42 17.4206 6.41672 17.4087 6.41672C17.397 6.41672 17.3867 6.42 17.3776 6.42656C17.3687 6.43295 17.3618 6.44226 17.3569 6.4545C17.3519 6.46656 17.3494 6.48129 17.3494 6.49867C17.3494 6.51588 17.3519 6.5306 17.3569 6.54284C17.3618 6.55508 17.3687 6.56448 17.3776 6.57104C17.3867 6.57743 17.397 6.58062 17.4087 6.58062ZM17.5839 6.59313C17.5697 6.59313 17.5571 6.58931 17.5461 6.58169C17.5351 6.57406 17.5265 6.56324 17.5203 6.54922C17.5141 6.53503 17.511 6.51818 17.511 6.49867C17.511 6.47916 17.5141 6.4624 17.5203 6.44838C17.5265 6.43419 17.5351 6.42328 17.5461 6.41565C17.5571 6.40803 17.5697 6.40421 17.5839 6.40421C17.5982 6.40421 17.6108 6.40803 17.6217 6.41565C17.6327 6.42328 17.6413 6.43419 17.6475 6.44838C17.6537 6.4624 17.6568 6.47916 17.6568 6.49867C17.6568 6.51818 17.6537 6.53503 17.6475 6.54922C17.6413 6.56324 17.6327 6.57406 17.6217 6.58169C17.6108 6.58931 17.5982 6.59313 17.5839 6.59313ZM17.5839 6.58062C17.5958 6.58062 17.6061 6.57743 17.615 6.57104C17.6239 6.56448 17.6308 6.55508 17.6358 6.54284C17.6407 6.5306 17.6432 6.51588 17.6432 6.49867C17.6432 6.48129 17.6407 6.46656 17.6358 6.4545C17.6308 6.44226 17.6239 6.43295 17.615 6.42656C17.6061 6.42 17.5958 6.41672 17.5839 6.41672C17.5722 6.41672 17.5618 6.42 17.5527 6.42656C17.5439 6.43295 17.537 6.44226 17.532 6.4545C17.527 6.46656 17.5245 6.48129 17.5245 6.49867C17.5245 6.51588 17.527 6.5306 17.532 6.54284C17.537 6.55508 17.5439 6.56448 17.5527 6.57104C17.5618 6.57743 17.5722 6.58062 17.5839 6.58062Z" fill="#6B1312"/>
<path d="M17.0761 7.16882V6.98842L17.0822 6.99481H17.0306V6.98257H17.0897V7.16882H17.0761ZM17.1696 7.16882L17.2516 6.98896L17.2564 6.99481H17.1374L17.1443 6.98842V7.03046H17.131V6.98257H17.2646V6.99215L17.1845 7.16882H17.1696ZM17.298 7.05148C17.295 7.05148 17.2923 7.05042 17.29 7.04829C17.2879 7.04599 17.2868 7.04324 17.2868 7.04004C17.2868 7.03685 17.2879 7.03419 17.29 7.03206C17.2923 7.02993 17.295 7.02887 17.298 7.02887C17.301 7.02887 17.3036 7.02993 17.3057 7.03206C17.308 7.03419 17.3092 7.03685 17.3092 7.04004C17.3092 7.04324 17.308 7.04599 17.3057 7.04829C17.3036 7.05042 17.301 7.05148 17.298 7.05148ZM17.298 7.16989C17.295 7.16989 17.2923 7.16882 17.29 7.16669C17.2879 7.16439 17.2868 7.16164 17.2868 7.15845C17.2868 7.15525 17.2879 7.15259 17.29 7.15046C17.2923 7.14834 17.295 7.14727 17.298 7.14727C17.301 7.14727 17.3036 7.14834 17.3057 7.15046C17.308 7.15259 17.3092 7.15525 17.3092 7.15845C17.3092 7.16164 17.308 7.16439 17.3057 7.16669C17.3036 7.16882 17.301 7.16989 17.298 7.16989ZM17.4122 7.17015C17.398 7.17015 17.3854 7.16634 17.3744 7.15871C17.3634 7.15108 17.3548 7.14026 17.3486 7.12625C17.3424 7.11206 17.3393 7.09521 17.3393 7.0757C17.3393 7.05618 17.3424 7.03942 17.3486 7.02541C17.3548 7.01122 17.3634 7.00031 17.3744 6.99268C17.3854 6.98505 17.398 6.98124 17.4122 6.98124C17.4266 6.98124 17.4392 6.98505 17.45 6.99268C17.461 7.00031 17.4696 7.01122 17.4758 7.02541C17.482 7.03942 17.4851 7.05618 17.4851 7.0757C17.4851 7.09521 17.482 7.11206 17.4758 7.12625C17.4696 7.14026 17.461 7.15108 17.45 7.15871C17.4392 7.16634 17.4266 7.17015 17.4122 7.17015ZM17.4122 7.15765C17.4241 7.15765 17.4345 7.15446 17.4433 7.14807C17.4522 7.14151 17.4591 7.1321 17.4641 7.11987C17.4691 7.10763 17.4715 7.0929 17.4715 7.0757C17.4715 7.05831 17.4691 7.04359 17.4641 7.03153C17.4591 7.01929 17.4522 7.00998 17.4433 7.00359C17.4345 6.99703 17.4241 6.99375 17.4122 6.99375C17.4005 6.99375 17.3901 6.99703 17.3811 7.00359C17.3722 7.00998 17.3653 7.01929 17.3603 7.03153C17.3554 7.04359 17.3529 7.05831 17.3529 7.0757C17.3529 7.0929 17.3554 7.10763 17.3603 7.11987C17.3653 7.1321 17.3722 7.14151 17.3811 7.14807C17.3901 7.15446 17.4005 7.15765 17.4122 7.15765ZM17.5873 7.17015C17.5731 7.17015 17.5606 7.16634 17.5496 7.15871C17.5386 7.15108 17.53 7.14026 17.5237 7.12625C17.5175 7.11206 17.5144 7.09521 17.5144 7.0757C17.5144 7.05618 17.5175 7.03942 17.5237 7.02541C17.53 7.01122 17.5386 7.00031 17.5496 6.99268C17.5606 6.98505 17.5731 6.98124 17.5873 6.98124C17.6017 6.98124 17.6143 6.98505 17.6251 6.99268C17.6361 7.00031 17.6447 7.01122 17.6509 7.02541C17.6571 7.03942 17.6602 7.05618 17.6602 7.0757C17.6602 7.09521 17.6571 7.11206 17.6509 7.12625C17.6447 7.14026 17.6361 7.15108 17.6251 7.15871C17.6143 7.16634 17.6017 7.17015 17.5873 7.17015ZM17.5873 7.15765C17.5992 7.15765 17.6096 7.15446 17.6185 7.14807C17.6273 7.14151 17.6343 7.1321 17.6392 7.11987C17.6442 7.10763 17.6467 7.0929 17.6467 7.0757C17.6467 7.05831 17.6442 7.04359 17.6392 7.03153C17.6343 7.01929 17.6273 7.00998 17.6185 7.00359C17.6096 6.99703 17.5992 6.99375 17.5873 6.99375C17.5756 6.99375 17.5653 6.99703 17.5562 7.00359C17.5473 7.00998 17.5404 7.01929 17.5355 7.03153C17.5305 7.04359 17.528 7.05831 17.528 7.0757C17.528 7.0929 17.5305 7.10763 17.5355 7.11987C17.5404 7.1321 17.5473 7.14151 17.5562 7.14807C17.5653 7.15446 17.5756 7.15765 17.5873 7.15765Z" fill="#6B1312"/>
<path d="M17.0492 7.74512V7.56472L17.0553 7.5711H17.0037V7.55886H17.0627V7.74512H17.0492ZM17.1789 7.74645C17.1642 7.74645 17.1516 7.74432 17.1411 7.74006C17.1306 7.7358 17.1226 7.72977 17.1169 7.72197C17.1114 7.71416 17.1086 7.70485 17.1086 7.69403C17.1086 7.68357 17.1114 7.67461 17.1169 7.66716C17.1224 7.65971 17.1304 7.65403 17.1408 7.65013C17.1513 7.64605 17.164 7.64401 17.1789 7.64401C17.1938 7.64401 17.2065 7.64605 17.2169 7.65013C17.2276 7.65403 17.2356 7.65971 17.2411 7.66716C17.2468 7.67461 17.2497 7.68357 17.2497 7.69403C17.2497 7.70485 17.2468 7.71416 17.2411 7.72197C17.2355 7.72977 17.2273 7.7358 17.2167 7.74006C17.2062 7.74432 17.1936 7.74645 17.1789 7.74645ZM17.1789 7.73474C17.1968 7.73474 17.2108 7.7311 17.2209 7.72383C17.231 7.71656 17.2361 7.70662 17.2361 7.69403C17.2361 7.68161 17.231 7.67177 17.2209 7.6645C17.2108 7.65722 17.1968 7.65359 17.1789 7.65359C17.161 7.65359 17.147 7.65722 17.1371 7.6645C17.1272 7.67177 17.1222 7.68161 17.1222 7.69403C17.1222 7.70662 17.1272 7.71656 17.1371 7.72383C17.147 7.7311 17.161 7.73474 17.1789 7.73474ZM17.1789 7.65172C17.1654 7.65172 17.1539 7.64995 17.1443 7.6464C17.1349 7.64268 17.1277 7.63736 17.1227 7.63044C17.1178 7.62352 17.1153 7.61527 17.1153 7.60569C17.1153 7.59576 17.1179 7.58725 17.123 7.58015C17.1283 7.57288 17.1358 7.56729 17.1454 7.56339C17.1549 7.55949 17.1661 7.55753 17.1789 7.55753C17.1918 7.55753 17.2031 7.55949 17.2127 7.56339C17.2222 7.56729 17.2297 7.57288 17.235 7.58015C17.2403 7.58725 17.243 7.59576 17.243 7.60569C17.243 7.61527 17.2404 7.62352 17.2353 7.63044C17.2303 7.63736 17.223 7.64268 17.2135 7.6464C17.2039 7.64995 17.1924 7.65172 17.1789 7.65172ZM17.1789 7.64241C17.1948 7.64241 17.2073 7.63913 17.2161 7.63257C17.225 7.626 17.2294 7.61722 17.2294 7.60623C17.2294 7.5947 17.2248 7.58565 17.2156 7.57909C17.2065 7.57252 17.1943 7.56924 17.1789 7.56924C17.1636 7.56924 17.1515 7.57252 17.1424 7.57909C17.1334 7.58565 17.1289 7.59461 17.1289 7.60596C17.1289 7.61713 17.1332 7.626 17.1419 7.63257C17.1508 7.63913 17.1631 7.64241 17.1789 7.64241ZM17.2898 7.62778C17.2868 7.62778 17.2841 7.62671 17.2818 7.62459C17.2797 7.62228 17.2786 7.61953 17.2786 7.61634C17.2786 7.61314 17.2797 7.61048 17.2818 7.60835C17.2841 7.60623 17.2868 7.60516 17.2898 7.60516C17.2928 7.60516 17.2954 7.60623 17.2975 7.60835C17.2998 7.61048 17.301 7.61314 17.301 7.61634C17.301 7.61953 17.2998 7.62228 17.2975 7.62459C17.2954 7.62671 17.2928 7.62778 17.2898 7.62778ZM17.2898 7.74618C17.2868 7.74618 17.2841 7.74512 17.2818 7.74299C17.2797 7.74068 17.2786 7.73793 17.2786 7.73474C17.2786 7.73155 17.2797 7.72889 17.2818 7.72676C17.2841 7.72463 17.2868 7.72357 17.2898 7.72357C17.2928 7.72357 17.2954 7.72463 17.2975 7.72676C17.2998 7.72889 17.301 7.73155 17.301 7.73474C17.301 7.73793 17.2998 7.74068 17.2975 7.74299C17.2954 7.74512 17.2928 7.74618 17.2898 7.74618ZM17.404 7.74645C17.3898 7.74645 17.3772 7.74263 17.3662 7.73501C17.3552 7.72738 17.3466 7.71656 17.3404 7.70255C17.3342 7.68835 17.3311 7.6715 17.3311 7.65199C17.3311 7.63248 17.3342 7.61572 17.3404 7.6017C17.3466 7.58751 17.3552 7.5766 17.3662 7.56898C17.3772 7.56135 17.3898 7.55753 17.404 7.55753C17.4184 7.55753 17.4309 7.56135 17.4418 7.56898C17.4528 7.5766 17.4614 7.58751 17.4676 7.6017C17.4738 7.61572 17.4769 7.63248 17.4769 7.65199C17.4769 7.6715 17.4738 7.68835 17.4676 7.70255C17.4614 7.71656 17.4528 7.72738 17.4418 7.73501C17.4309 7.74263 17.4184 7.74645 17.404 7.74645ZM17.404 7.73394C17.4159 7.73394 17.4262 7.73075 17.4351 7.72436C17.444 7.7178 17.4509 7.7084 17.4559 7.69616C17.4608 7.68392 17.4633 7.6692 17.4633 7.65199C17.4633 7.63461 17.4608 7.61988 17.4559 7.60782C17.4509 7.59558 17.444 7.58627 17.4351 7.57988C17.4262 7.57332 17.4159 7.57004 17.404 7.57004C17.3923 7.57004 17.3819 7.57332 17.3729 7.57988C17.364 7.58627 17.3571 7.59558 17.3521 7.60782C17.3471 7.61988 17.3446 7.63461 17.3446 7.65199C17.3446 7.6692 17.3471 7.68392 17.3521 7.69616C17.3571 7.7084 17.364 7.7178 17.3729 7.72436C17.3819 7.73075 17.3923 7.73394 17.404 7.73394ZM17.5791 7.74645C17.5649 7.74645 17.5523 7.74263 17.5413 7.73501C17.5303 7.72738 17.5217 7.71656 17.5155 7.70255C17.5093 7.68835 17.5062 7.6715 17.5062 7.65199C17.5062 7.63248 17.5093 7.61572 17.5155 7.6017C17.5217 7.58751 17.5303 7.5766 17.5413 7.56898C17.5523 7.56135 17.5649 7.55753 17.5791 7.55753C17.5935 7.55753 17.6061 7.56135 17.6169 7.56898C17.6279 7.5766 17.6365 7.58751 17.6427 7.6017C17.6489 7.61572 17.652 7.63248 17.652 7.65199C17.652 7.6715 17.6489 7.68835 17.6427 7.70255C17.6365 7.71656 17.6279 7.72738 17.6169 7.73501C17.6061 7.74263 17.5935 7.74645 17.5791 7.74645ZM17.5791 7.73394C17.591 7.73394 17.6014 7.73075 17.6102 7.72436C17.6191 7.7178 17.626 7.7084 17.631 7.69616C17.636 7.68392 17.6385 7.6692 17.6385 7.65199C17.6385 7.63461 17.636 7.61988 17.631 7.60782C17.626 7.59558 17.6191 7.58627 17.6102 7.57988C17.6014 7.57332 17.591 7.57004 17.5791 7.57004C17.5674 7.57004 17.557 7.57332 17.548 7.57988C17.5391 7.58627 17.5322 7.59558 17.5272 7.60782C17.5223 7.61988 17.5198 7.63461 17.5198 7.65199C17.5198 7.6692 17.5223 7.68392 17.5272 7.69616C17.5322 7.7084 17.5391 7.7178 17.548 7.72436C17.557 7.73075 17.5674 7.73394 17.5791 7.73394Z" fill="#6B1312"/>
<path d="M17.062 8.32129V8.14089L17.0681 8.14728H17.0165V8.13504H17.0755V8.32129H17.062ZM17.1787 8.13371C17.195 8.13371 17.2086 8.13743 17.2196 8.14488C17.2308 8.15233 17.2392 8.16306 17.2449 8.17708C17.2506 8.19091 17.2534 8.20759 17.2534 8.2271C17.2534 8.24803 17.25 8.26559 17.243 8.27978C17.2361 8.29397 17.2265 8.3047 17.214 8.31198C17.2016 8.31907 17.1872 8.32262 17.1707 8.32262C17.1627 8.32262 17.1551 8.32191 17.1478 8.32049C17.1407 8.31907 17.1342 8.31659 17.1284 8.31304L17.134 8.30213C17.1387 8.30515 17.1443 8.30736 17.1507 8.30878C17.1571 8.31003 17.1638 8.31065 17.1707 8.31065C17.1916 8.31065 17.2084 8.30391 17.221 8.29042C17.2336 8.27677 17.2399 8.25637 17.2399 8.22923C17.2399 8.22497 17.2396 8.21974 17.2391 8.21353C17.2385 8.20732 17.2374 8.2012 17.2356 8.19517L17.2404 8.1965C17.2391 8.20679 17.2357 8.21557 17.23 8.22284C17.2243 8.22994 17.2171 8.23544 17.2082 8.23934C17.1995 8.24324 17.1897 8.24519 17.1789 8.24519C17.1665 8.24519 17.1556 8.24297 17.1462 8.23854C17.137 8.23393 17.1297 8.22745 17.1244 8.21912C17.1192 8.21078 17.1167 8.20102 17.1167 8.18985C17.1167 8.1785 17.1193 8.16865 17.1246 8.16031C17.1301 8.1518 17.1375 8.14524 17.1467 8.14062C17.1561 8.13601 17.1668 8.13371 17.1787 8.13371ZM17.1792 8.14541C17.1694 8.14541 17.1609 8.14728 17.1536 8.151C17.1464 8.15455 17.1406 8.1596 17.1363 8.16617C17.1323 8.17273 17.1302 8.18054 17.1302 8.18958C17.1302 8.20289 17.1348 8.21353 17.1438 8.22151C17.1528 8.22949 17.1652 8.23348 17.1808 8.23348C17.1909 8.23348 17.1999 8.23153 17.2077 8.22763C17.2155 8.22373 17.2215 8.21841 17.2258 8.21167C17.2302 8.20493 17.2324 8.19739 17.2324 8.18905C17.2324 8.18178 17.2304 8.17486 17.2263 8.1683C17.2222 8.16156 17.2163 8.15606 17.2085 8.1518C17.2007 8.14754 17.1909 8.14541 17.1792 8.14541ZM17.2945 8.20395C17.2915 8.20395 17.2889 8.20289 17.2866 8.20076C17.2844 8.19845 17.2834 8.1957 17.2834 8.19251C17.2834 8.18932 17.2844 8.18665 17.2866 8.18453C17.2889 8.1824 17.2915 8.18133 17.2945 8.18133C17.2976 8.18133 17.3001 8.1824 17.3023 8.18453C17.3046 8.18665 17.3057 8.18932 17.3057 8.19251C17.3057 8.1957 17.3046 8.19845 17.3023 8.20076C17.3001 8.20289 17.2976 8.20395 17.2945 8.20395ZM17.2945 8.32235C17.2915 8.32235 17.2889 8.32129 17.2866 8.31916C17.2844 8.31685 17.2834 8.31411 17.2834 8.31091C17.2834 8.30772 17.2844 8.30506 17.2866 8.30293C17.2889 8.3008 17.2915 8.29974 17.2945 8.29974C17.2976 8.29974 17.3001 8.3008 17.3023 8.30293C17.3046 8.30506 17.3057 8.30772 17.3057 8.31091C17.3057 8.31411 17.3046 8.31685 17.3023 8.31916C17.3001 8.32129 17.2976 8.32235 17.2945 8.32235ZM17.4087 8.32262C17.3946 8.32262 17.382 8.31881 17.371 8.31118C17.36 8.30355 17.3514 8.29273 17.3452 8.27872C17.3389 8.26453 17.3358 8.24767 17.3358 8.22816C17.3358 8.20865 17.3389 8.19189 17.3452 8.17787C17.3514 8.16368 17.36 8.15277 17.371 8.14515C17.382 8.13752 17.3946 8.13371 17.4087 8.13371C17.4231 8.13371 17.4357 8.13752 17.4465 8.14515C17.4575 8.15277 17.4661 8.16368 17.4723 8.17787C17.4785 8.19189 17.4817 8.20865 17.4817 8.22816C17.4817 8.24767 17.4785 8.26453 17.4723 8.27872C17.4661 8.29273 17.4575 8.30355 17.4465 8.31118C17.4357 8.31881 17.4231 8.32262 17.4087 8.32262ZM17.4087 8.31011C17.4206 8.31011 17.431 8.30692 17.4399 8.30054C17.4487 8.29397 17.4557 8.28457 17.4606 8.27233C17.4656 8.26009 17.4681 8.24537 17.4681 8.22816C17.4681 8.21078 17.4656 8.19606 17.4606 8.18399C17.4557 8.17175 17.4487 8.16244 17.4399 8.15606C17.431 8.14949 17.4206 8.14621 17.4087 8.14621C17.397 8.14621 17.3867 8.14949 17.3776 8.15606C17.3687 8.16244 17.3618 8.17175 17.3569 8.18399C17.3519 8.19606 17.3494 8.21078 17.3494 8.22816C17.3494 8.24537 17.3519 8.26009 17.3569 8.27233C17.3618 8.28457 17.3687 8.29397 17.3776 8.30054C17.3867 8.30692 17.397 8.31011 17.4087 8.31011ZM17.5839 8.32262C17.5697 8.32262 17.5571 8.31881 17.5461 8.31118C17.5351 8.30355 17.5265 8.29273 17.5203 8.27872C17.5141 8.26453 17.511 8.24767 17.511 8.22816C17.511 8.20865 17.5141 8.19189 17.5203 8.17787C17.5265 8.16368 17.5351 8.15277 17.5461 8.14515C17.5571 8.13752 17.5697 8.13371 17.5839 8.13371C17.5982 8.13371 17.6108 8.13752 17.6217 8.14515C17.6327 8.15277 17.6413 8.16368 17.6475 8.17787C17.6537 8.19189 17.6568 8.20865 17.6568 8.22816C17.6568 8.24767 17.6537 8.26453 17.6475 8.27872C17.6413 8.29273 17.6327 8.30355 17.6217 8.31118C17.6108 8.31881 17.5982 8.32262 17.5839 8.32262ZM17.5839 8.31011C17.5958 8.31011 17.6061 8.30692 17.615 8.30054C17.6239 8.29397 17.6308 8.28457 17.6358 8.27233C17.6407 8.26009 17.6432 8.24537 17.6432 8.22816C17.6432 8.21078 17.6407 8.19606 17.6358 8.18399C17.6308 8.17175 17.6239 8.16244 17.615 8.15606C17.6061 8.14949 17.5958 8.14621 17.5839 8.14621C17.5722 8.14621 17.5618 8.14949 17.5527 8.15606C17.5439 8.16244 17.537 8.17175 17.532 8.18399C17.527 8.19606 17.5245 8.21078 17.5245 8.22816C17.5245 8.24537 17.527 8.26009 17.532 8.27233C17.537 8.28457 17.5439 8.29397 17.5527 8.30054C17.5618 8.30692 17.5722 8.31011 17.5839 8.31011Z" fill="#6B1312"/>
<mask id="path-21-inside-1_249_1574" fill="white">
<path d="M23.5 23L11.8087 4.25L35.1913 4.25L23.5 23Z"/>
</mask>
<path d="M23.5 23L-28.2619 55.2755L23.5 138.289L75.2619 55.2755L23.5 23ZM11.8087 4.25L11.8087 -56.75L-98.1141 -56.75L-39.9532 36.5255L11.8087 4.25ZM35.1913 4.25L86.9532 36.5255L145.114 -56.75L35.1913 -56.75L35.1913 4.25ZM23.5 23L75.2619 -9.27551L63.5705 -28.0255L11.8087 4.25L-39.9532 36.5255L-28.2619 55.2755L23.5 23ZM11.8087 4.25L11.8087 65.25H35.1913V4.25L35.1913 -56.75H11.8087L11.8087 4.25ZM35.1913 4.25L-16.5705 -28.0255L-28.2619 -9.27551L23.5 23L75.2619 55.2755L86.9532 36.5255L35.1913 4.25Z" fill="#6B1312" mask="url(#path-21-inside-1_249_1574)"/>
</svg>
