<svg width="51" height="51" viewBox="0 0 51 51" fill="none" xmlns="http://www.w3.org/2000/svg">
<circle cx="25.5" cy="25.5" r="25.5" fill="#6B1312"/>
<path d="M37.9581 18.518C37.9581 16.8148 38.3675 13.9941 36.6274 13.0891C35.6038 12.5567 31.5093 14.5797 31.2022 14.6863C30.281 15.0058 11.3441 22.8831 9.19448 24.0541C7.04489 25.225 8.27323 26.7154 9.19448 26.9283C10.1157 27.1412 18.5094 29.0573 19.1235 28.4186C19.7377 27.7799 29.5644 20.1153 29.9738 20.3282C30.3833 20.5411 24.6511 26.396 22.2968 28.4186C19.9581 30.4278 21.8617 31.9117 22.2884 32.2444L22.2968 32.2509C22.7062 32.5702 30.8951 37.8928 33.6589 39.4896C36.4226 41.0864 36.7297 38.5316 36.7297 37.3606C36.7297 36.1896 37.9581 19.482 37.9581 18.518Z" fill="#FFE4F7" stroke="#6B1312" stroke-width="0.420911"/>
</svg>
